<svg xmlns="http://www.w3.org/2000/svg" viewBox="0 0 100 100" fill="none" shape-rendering="auto"><desc>"Shapes" by "Florian Körner", licensed under "CC0 1.0". / Remix of the original. - Created with dicebear.com</desc><metadata xmlns:dc="http://purl.org/dc/elements/1.1/" xmlns:cc="http://creativecommons.org/ns#" xmlns:rdf="http://www.w3.org/1999/02/22-rdf-syntax-ns#"><rdf:RDF><cc:Work><dc:title>Shapes</dc:title><dc:creator><cc:Agent rdf:about="https://dicebear.com"><dc:title>Florian Körner</dc:title></cc:Agent></dc:creator><dc:source>https://dicebear.com</dc:source><cc:license rdf:resource="https://creativecommons.org/publicdomain/zero/1.0/" /></cc:Work></rdf:RDF></metadata><mask id="viewboxMask"><rect width="100" height="100" rx="0" ry="0" x="0" y="0" fill="#fff" /></mask><g mask="url(#viewboxMask)"><rect fill="#0a5b83" width="100" height="100" x="0" y="0" /><g transform="matrix(1.2 0 0 1.2 -10 -10)"><g transform="translate(35, -21) rotate(-59 50 50)"><path d="m50 7 50 86.6H0L50 7Z" fill="#1c799f"/></g></g><g transform="matrix(.8 0 0 .8 10 10)"><g transform="translate(-26, 22) rotate(122 50 50)"><path d="m50 7 50 86.6H0L50 7Z" fill="#f88c49"/></g></g><g transform="matrix(.4 0 0 .4 30 30)"><g transform="translate(-11, -22) rotate(-167 50 50)"><path fill-rule="evenodd" clip-rule="evenodd" d="M50 7 0 93.6h100L50 7Zm0 20L17.3 83.6h65.4L50 27Z" fill="#f1f4dc"/></g></g></g></svg>
