<svg xmlns="http://www.w3.org/2000/svg" version="1.1" xmlns:xlink="http://www.w3.org/1999/xlink" xmlns:svgjs="http://svgjs.dev/svgjs" width="1000" height="1000" viewBox="0 0 1000 1000"><rect width="1000" height="1000" fill="#ffffff"></rect><g transform="matrix(0.7,0,0,0.7,149.57575757575756,376.796366271417)"><svg viewBox="0 0 396 139" data-background-color="#ffffff" preserveAspectRatio="xMidYMid meet" height="351" width="1000" xmlns="http://www.w3.org/2000/svg" xmlns:xlink="http://www.w3.org/1999/xlink"><g id="tight-bounds" transform="matrix(1,0,0,1,0.2400000000000091,0.2000614093326476)"><svg viewBox="0 0 395.52 138.59987718133468" height="138.59987718133468" width="395.52"><g><svg viewBox="0 0 681.3078025146724 238.74690976744188" height="138.59987718133468" width="395.52"><g transform="matrix(1,0,0,1,285.7878025146723,31.782080676532786)"><svg viewBox="0 0 395.52000000000004 175.1827484143763" height="175.1827484143763" width="395.52000000000004"><g><svg viewBox="0 0 395.52000000000004 175.1827484143763" height="175.1827484143763" width="395.52000000000004"><g><svg viewBox="0 0 395.52000000000004 175.1827484143763" height="175.1827484143763" width="395.52000000000004"><g transform="matrix(1,0,0,1,0,0)"><svg width="395.52000000000004" viewBox="1.05 -41 94.59 41.900000000000006" height="175.1827484143763" data-palette-color="#a437db"><path d="M24.7-8.2Q24.7-6.75 25.08-6.05 25.45-5.35 26.4-5L26.4-5 24.6 0.75Q22.05 0.55 20.43-0.3 18.8-1.15 17.8-3L17.8-3Q15.25 0.9 9.75 0.9L9.75 0.9Q5.8 0.9 3.43-1.43 1.05-3.75 1.05-7.45L1.05-7.45Q1.05-11.85 4.3-14.2 7.55-16.55 13.7-16.55L13.7-16.55 16-16.55 16-17.45Q16-19.6 15.1-20.38 14.2-21.15 11.85-21.15L11.85-21.15Q10.6-21.15 8.72-20.78 6.85-20.4 4.9-19.75L4.9-19.75 2.95-25.5Q5.35-26.5 8.1-27.03 10.85-27.55 13.2-27.55L13.2-27.55Q19.2-27.55 21.95-25.18 24.7-22.8 24.7-17.9L24.7-17.9 24.7-8.2ZM12.45-5.35Q13.55-5.35 14.48-5.93 15.4-6.5 16-7.5L16-7.5 16-11.8 14.5-11.8Q12.1-11.8 10.95-10.93 9.8-10.05 9.8-8.3L9.8-8.3Q9.8-6.95 10.5-6.15 11.2-5.35 12.45-5.35L12.45-5.35ZM30.1-26.65L39-26.65 39 0 30.1 0 30.1-26.65ZM34.55-41Q36.8-41 38.22-39.6 39.65-38.2 39.65-36.1L39.65-36.1Q39.65-34 38.22-32.6 36.8-31.2 34.55-31.2L34.55-31.2Q32.3-31.2 30.87-32.6 29.45-34 29.45-36.1L29.45-36.1Q29.45-38.2 30.87-39.6 32.3-41 34.55-41L34.55-41ZM44.2-37.15L53.09-38.05 53.09 0 44.2 0 44.2-37.15ZM60.95-26.65L69.84-26.65 62.3-14.95 70.39 0 60.5 0 53.3-14.55 60.95-26.65ZM95.64-26.65L95.64 0 87.89 0 87.54-3.15Q84.74 0.9 79.59 0.9L79.59 0.9Q75.89 0.9 74.02-1.33 72.14-3.55 72.14-7.5L72.14-7.5 72.14-26.65 81.04-26.65 81.04-8.65Q81.04-6.95 81.57-6.28 82.09-5.6 83.14-5.6L83.14-5.6Q84.09-5.6 85.02-6.28 85.94-6.95 86.74-8.25L86.74-8.25 86.74-26.65 95.64-26.65Z" opacity="1" transform="matrix(1,0,0,1,0,0)" fill="#000000" class="undefined-text-0" data-fill-palette-color="primary" id="text-0"></path></svg></g></svg></g></svg></g></svg></g><g><svg viewBox="0 0 244.43136 238.74690976744188" height="238.74690976744188" width="244.43136"><g><svg xmlns="http://www.w3.org/2000/svg" xmlns:xlink="http://www.w3.org/1999/xlink" version="1.1" x="0" y="0" viewBox="7 8 86 84" style="enable-background:new 0 0 100 100;" xml:space="preserve" height="238.74690976744188" width="244.43136" class="icon-icon-0" data-fill-palette-color="accent" id="icon-0"><g fill="#bb84e8" data-fill-palette-color="accent"><path d="M81 8c-6.6 0-12 5.4-12 12s5.4 12 12 12 12-5.4 12-12S87.6 8 81 8zM81 24c-2.2 0-4-1.8-4-4s1.8-4 4-4 4 1.8 4 4S83.2 24 81 24z" fill="#000000" data-fill-palette-color="accent"></path><path d="M81 38c-1.9 0-3.8 0.5-5.4 1.3L61 24.7c0.6-1.5 1-3 1-4.7 0-6.6-5.4-12-12-12s-12 5.4-12 12 5.4 12 12 12c2 0 3.9-0.5 5.6-1.4l14.5 14.5C69.4 46.6 69 48.2 69 50c0 6.6 5.4 12 12 12s12-5.4 12-12S87.6 38 81 38zM46 20c0-2.2 1.8-4 4-4s4 1.8 4 4-1.8 4-4 4S46 22.2 46 20zM81 54c-2.2 0-4-1.8-4-4s1.8-4 4-4 4 1.8 4 4S83.2 54 81 54z" fill="#000000" data-fill-palette-color="accent"></path><path d="M62 50c0-6.6-5.4-12-12-12s-12 5.4-12 12 5.4 12 12 12S62 56.6 62 50zM46 50c0-2.2 1.8-4 4-4s4 1.8 4 4-1.8 4-4 4S46 52.2 46 50z" fill="#000000" data-fill-palette-color="accent"></path><path d="M19 92c6.6 0 12-5.4 12-12s-5.4-12-12-12S7 73.4 7 80 12.4 92 19 92zM19 76c2.2 0 4 1.8 4 4s-1.8 4-4 4-4-1.8-4-4S16.8 76 19 76z" fill="#000000" data-fill-palette-color="accent"></path><path d="M81 68c-5.2 0-9.6 3.3-11.3 8h-8.4c-1.7-4.7-6.1-8-11.3-8-3 0-5.7 1.1-7.7 2.8L28.6 57.2c1.5-2 2.4-4.5 2.4-7.2 0-5.2-3.3-9.6-8-11.3v-7.4c4.7-1.7 8-6.1 8-11.3 0-6.6-5.4-12-12-12S7 13.4 7 20c0 5.2 3.3 9.6 8 11.3v7.4c-4.7 1.7-8 6.1-8 11.3 0 6.6 5.4 12 12 12 1 0 1.9-0.1 2.8-0.3l16.4 16.4C38.1 78.7 38 79.3 38 80c0 6.6 5.4 12 12 12 5.2 0 9.6-3.3 11.3-8h8.4c1.7 4.7 6.1 8 11.3 8 6.6 0 12-5.4 12-12S87.6 68 81 68zM19 16c2.2 0 4 1.8 4 4s-1.8 4-4 4-4-1.8-4-4S16.8 16 19 16zM15 50c0-2.2 1.8-4 4-4s4 1.8 4 4-1.8 4-4 4S15 52.2 15 50zM50 84c-2.2 0-4-1.8-4-4s1.8-4 4-4 4 1.8 4 4S52.2 84 50 84zM81 84c-2.2 0-4-1.8-4-4s1.8-4 4-4 4 1.8 4 4S83.2 84 81 84z" fill="#000000" data-fill-palette-color="accent"></path></g></svg></g></svg></g></svg></g><defs></defs></svg><rect width="395.52" height="138.59987718133468" fill="none" stroke="none" visibility="hidden"></rect></g></svg></g></svg>