<?xml version="1.0" encoding="iso-8859-1"?>
<!-- Uploaded to: SVG Repo, www.svgrepo.com, Generator: SVG Repo Mixer Tools -->
<svg fill="#000000" height="800px" width="800px" version="1.1" id="Capa_1" xmlns="http://www.w3.org/2000/svg" xmlns:xlink="http://www.w3.org/1999/xlink" 
	 viewBox="0 0 490 490" xml:space="preserve">
<g>
	<g>
		<g>
			<path d="M291.596,348.844c-5.893,3.993-15.779,7.987-28.324,7.987c-15.402,0-29.087-5.893-38.592-16.924
				c-7.228-7.987-11.98-19.01-13.689-32.695h-11.79v-9.318h10.84c0-0.95,0-1.899,0-2.849c0-3.044,0.187-5.901,0.378-8.555h-11.218
				v-9.513h12.549c2.281-13.304,7.987-24.334,15.589-32.127c9.696-10.073,22.054-15.779,37.642-15.779
				c11.218,0,19.964,3.231,25.288,6.088l-3.803,12.541c-4.753-2.849-12.739-5.317-21.295-5.317
				c-10.264,0-18.628,3.612-25.093,10.455c-5.702,5.511-9.505,14.067-11.408,24.14h53.044v9.513h-54.753
				c-0.191,2.468-0.381,5.317-0.381,7.979c0,1.144,0,2.094,0,3.425h55.134v9.318h-53.803c1.522,11.023,5.321,19.197,10.455,24.903
				c7.033,7.411,16.542,11.023,26.806,11.023c10.077,0,18.823-3.799,23.194-6.274L291.596,348.844z"/>
		</g>
	</g>
	<g>
		<g>
			<g>
				<path d="M490,172.042H0L245,7.805L490,172.042z M50.138,156.789h389.724L245,26.156L50.138,156.789z"/>
			</g>
			<g>
				<path d="M489.047,482.195H0.953v-61.339h488.093V482.195z M16.206,466.942h457.588v-30.834H16.206V466.942z"/>
			</g>
			<g>
				<path d="M110.584,393.537H49.259V197.156h61.324V393.537z M64.512,378.284h30.819V212.409H64.512V378.284z"/>
			</g>
			<g>
				<path d="M182.007,393.537h-61.339V197.156h61.339V393.537z M135.921,378.284h30.834V212.409h-30.834V378.284z"/>
			</g>
			<g>
				<path d="M369.332,393.537h-61.339V197.156h61.339V393.537z M323.246,378.284h30.833V212.409h-30.833V378.284z"/>
			</g>
			<g>
				<path d="M440.741,393.537h-61.325V197.156h61.325V393.537z M394.669,378.284h30.819V212.409h-30.819V378.284z"/>
			</g>
		</g>
		<g>
			<path d="M163.194,99.174h13.659c6.212,0,10.725,0.894,13.54,2.651c2.8,1.773,4.215,4.588,4.215,8.446
				c0,2.622-0.626,4.767-1.847,6.45c-1.236,1.683-2.86,2.696-4.901,3.039v0.298c2.771,0.611,4.781,1.773,6.003,3.471
				c1.236,1.698,1.847,3.962,1.847,6.777c0,4.007-1.445,7.12-4.335,9.354c-2.89,2.249-6.807,3.366-11.767,3.366h-16.415V99.174z
				 M172.504,116.542h5.392c2.517,0,4.349-0.387,5.481-1.162c1.117-0.79,1.683-2.071,1.683-3.873c0-1.683-0.611-2.89-1.832-3.62
				c-1.236-0.73-3.188-1.087-5.839-1.087h-4.886V116.542z M172.504,123.915v11.44h6.047c2.562,0,4.454-0.492,5.675-1.475
				c1.221-0.983,1.832-2.488,1.832-4.498c0-3.634-2.607-5.467-7.805-5.467H172.504z"/>
			<path d="M231.326,143.026l-3.188-10.442h-15.983l-3.173,10.442h-10.025l15.477-44.031H225.8l15.536,44.031H231.326z
				 M225.919,124.794c-2.934-9.459-4.588-14.806-4.96-16.042c-0.372-1.251-0.641-2.219-0.79-2.949
				c-0.67,2.562-2.562,8.893-5.675,18.992H225.919z"/>
			<path d="M285.754,143.026h-11.812l-19.081-33.172h-0.268c0.372,5.854,0.566,10.04,0.566,12.542v20.63h-8.312V99.174h11.738
				l19.036,32.844h0.209c-0.298-5.705-0.447-9.727-0.447-12.08V99.174h8.371V143.026z"/>
			<path d="M332.049,143.026h-10.546l-11.499-18.47l-3.918,2.815v15.655h-9.31V99.174h9.31v20.064l3.65-5.154l11.887-14.91h10.308
				l-15.298,19.409L332.049,143.026z"/>
		</g>
	</g>
</g>
</svg>