<?xml version="1.0" encoding="UTF-8"?>
<!DOCTYPE svg PUBLIC "-//W3C//DTD SVG 1.1//EN" "http://www.w3.org/Graphics/SVG/1.1/DTD/svg11.dtd">
<svg xmlns="http://www.w3.org/2000/svg" version="1.1" width="499px" height="499px" style="shape-rendering:geometricPrecision; text-rendering:geometricPrecision; image-rendering:optimizeQuality; fill-rule:evenodd; clip-rule:evenodd" xmlns:xlink="http://www.w3.org/1999/xlink">
<g><path style="opacity:0.997" fill="#212121" d="M 353.5,42.5 C 354.344,44.7593 356.011,45.7593 358.5,45.5C 392.394,62.7194 419.728,87.386 440.5,119.5C 440.738,121.404 441.738,122.738 443.5,123.5C 443.833,124.167 444.167,124.833 444.5,125.5C 444.427,127.027 445.094,128.027 446.5,128.5C 462.034,152.934 472.034,179.601 476.5,208.5C 476.679,210.954 476.013,213.121 474.5,215C 474.667,215.5 474.833,216 475,216.5C 475.308,215.692 475.808,215.025 476.5,214.5C 477.172,215.949 477.839,217.282 478.5,218.5C 484.777,269.114 475.777,316.781 451.5,361.5C 450.094,361.973 449.427,362.973 449.5,364.5C 431.678,395.987 407.678,421.654 377.5,441.5C 375.973,441.427 374.973,442.094 374.5,443.5C 371.498,446.003 368.165,448.003 364.5,449.5C 362.973,449.427 361.973,450.094 361.5,451.5C 348.211,459.144 334.211,465.144 319.5,469.5C 317.102,469.259 315.102,469.926 313.5,471.5C 276.165,481.769 238.499,483.103 200.5,475.5C 198.562,473.837 196.228,473.171 193.5,473.5C 168.32,467.614 144.987,457.614 123.5,443.5C 122.738,441.738 121.404,440.738 119.5,440.5C 118.29,440.068 117.29,439.401 116.5,438.5C 116.027,437.094 115.027,436.427 113.5,436.5C 111.246,435.876 109.579,434.543 108.5,432.5C 108.027,431.094 107.027,430.427 105.5,430.5C 86.3294,416 70.3294,398.667 57.5,378.5C 57.2624,376.596 56.2624,375.262 54.5,374.5C 49.1228,367.08 44.7895,359.08 41.5,350.5C 41.573,348.973 40.9063,347.973 39.5,347.5C 38.3228,345.321 37.3228,342.987 36.5,340.5C 36.5394,339.417 36.8728,338.417 37.5,337.5C 36.2176,337.912 35.2176,337.246 34.5,335.5C 11.5357,276.054 12.0357,216.72 36,157.5C 51.7619,121.89 74.9286,91.8898 105.5,67.5C 107.027,67.573 108.027,66.9063 108.5,65.5C 109.262,63.7376 110.596,62.7376 112.5,62.5C 114.795,61.8645 116.461,60.5311 117.5,58.5C 179.429,17.4302 246.429,7.26353 318.5,28C 330.616,31.9767 342.283,36.81 353.5,42.5 Z M 309.5,44.5 C 310.78,45.9313 312.447,46.5979 314.5,46.5C 323.285,49.6484 331.951,52.9817 340.5,56.5C 340.973,57.9063 341.973,58.573 343.5,58.5C 345.05,59.4408 346.716,60.1075 348.5,60.5C 348.973,61.9063 349.973,62.573 351.5,62.5C 352.605,63.6005 353.938,64.2671 355.5,64.5C 355.973,65.9063 356.973,66.573 358.5,66.5C 363.167,69.5 367.833,72.5 372.5,75.5C 373.262,77.2624 374.596,78.2624 376.5,78.5C 380.5,81.8333 384.5,85.1667 388.5,88.5C 388.973,89.9063 389.973,90.573 391.5,90.5C 396.805,96.1404 402.139,101.807 407.5,107.5C 407.973,108.906 408.973,109.573 410.5,109.5C 419.566,121.286 427.899,133.619 435.5,146.5C 435.427,148.027 436.094,149.027 437.5,149.5C 461.307,196.829 467.641,246.495 456.5,298.5C 455.232,300.905 454.565,303.572 454.5,306.5C 449.906,321.009 444.239,335.009 437.5,348.5C 436.094,348.973 435.427,349.973 435.5,351.5C 433.58,354.339 431.913,357.339 430.5,360.5C 429.026,361.436 428.026,362.77 427.5,364.5C 421.833,372.5 416.167,380.5 410.5,388.5C 408.5,388.5 407.5,389.5 407.5,391.5C 405.833,392.5 404.5,393.833 403.5,395.5C 400.167,398.167 397.167,401.167 394.5,404.5C 393.167,405.167 392.167,406.167 391.5,407.5C 389.5,407.5 388.5,408.5 388.5,410.5C 385.527,412.147 382.86,414.147 380.5,416.5C 378.246,417.124 376.579,418.457 375.5,420.5C 367.528,425.489 359.528,430.489 351.5,435.5C 349.973,435.427 348.973,436.094 348.5,437.5C 337.608,442.447 326.608,447.113 315.5,451.5C 312.215,451.928 309.215,452.928 306.5,454.5C 251.878,468.778 199.545,463.112 149.5,437.5C 149.027,436.094 148.027,435.427 146.5,435.5C 125.751,423.411 107.085,408.744 90.5,391.5C 89.9202,389.251 88.5869,387.585 86.5,386.5C 81.0655,378.617 75.3988,370.95 69.5,363.5C 69.573,361.973 68.9063,360.973 67.5,360.5C 66.2673,357.265 64.6006,354.265 62.5,351.5C 62.573,349.973 61.9063,348.973 60.5,348.5C 53.871,334.626 48.2043,320.292 43.5,305.5C 43.4349,302.572 42.7682,299.905 41.5,297.5C 31.4653,249.178 36.4653,202.511 56.5,157.5C 57.9063,157.027 58.573,156.027 58.5,154.5C 63.649,145.043 68.9824,135.71 74.5,126.5C 78.5922,122.742 81.9255,118.409 84.5,113.5C 93.1667,104.167 102.167,95.1667 111.5,86.5C 112.833,86.5 113.5,85.8333 113.5,84.5C 126.359,74.5698 140.026,65.9031 154.5,58.5C 156.027,58.573 157.027,57.9063 157.5,56.5C 206.694,34.4645 257.361,30.4645 309.5,44.5 Z M 270.5,230.5 C 271.568,231.434 272.901,231.768 274.5,231.5C 274.662,233.527 274.495,235.527 274,237.5C 273.25,238.126 272.416,238.626 271.5,239C 276.165,241.946 276.165,245.113 271.5,248.5C 268.5,248.5 265.5,248.5 262.5,248.5C 262.5,242.5 262.5,236.5 262.5,230.5C 265.167,230.5 267.833,230.5 270.5,230.5 Z M 288.5,230.5 C 290.721,235.972 292.721,241.639 294.5,247.5C 293.998,248.521 293.332,248.688 292.5,248C 292.082,244.417 290.082,242.917 286.5,243.5C 284.667,243.585 283.334,244.252 282.5,245.5C 281.596,246.209 281.263,247.209 281.5,248.5C 280.209,248.737 279.209,248.404 278.5,247.5C 281.016,242.797 282.683,237.797 283.5,232.5C 284.779,231.032 286.446,230.365 288.5,230.5 Z M 303.5,230.5 C 305.719,235.709 308.719,240.376 312.5,244.5C 313.775,239.784 313.775,235.117 312.5,230.5C 313.5,230.5 314.5,230.5 315.5,230.5C 315.5,235.833 315.5,241.167 315.5,246.5C 315.209,247.649 314.376,248.316 313,248.5C 312.167,248.167 311.333,247.833 310.5,247.5C 308.07,242.963 305.403,238.63 302.5,234.5C 301.507,239.12 301.173,243.786 301.5,248.5C 299.547,242.926 298.88,236.926 299.5,230.5C 300.833,230.5 302.167,230.5 303.5,230.5 Z M 324.5,230.5 C 324.5,231.5 324.5,232.5 324.5,233.5C 324.338,235.527 324.505,237.527 325,239.5C 326.039,238.756 326.539,237.756 326.5,236.5C 328.5,235.024 330.167,233.191 331.5,231C 332.5,230.333 333.5,230.333 334.5,231C 332.602,233.388 330.935,235.888 329.5,238.5C 330.071,241.313 331.404,243.646 333.5,245.5C 333.414,246.496 333.748,247.329 334.5,248C 333.552,248.483 332.552,248.649 331.5,248.5C 330.342,245.517 328.675,242.85 326.5,240.5C 325.914,240.709 325.414,241.043 325,241.5C 324.503,243.81 324.337,246.143 324.5,248.5C 323.5,248.5 322.5,248.5 321.5,248.5C 321.5,242.5 321.5,236.5 321.5,230.5C 322.5,230.5 323.5,230.5 324.5,230.5 Z M 164.5,254.5 C 164.5,266.167 164.5,277.833 164.5,289.5C 152.833,289.5 141.167,289.5 129.5,289.5C 129.5,277.833 129.5,266.167 129.5,254.5C 141.167,254.5 152.833,254.5 164.5,254.5 Z M 317.5,313.5 C 317.5,315.5 317.5,317.5 317.5,319.5C 257.5,319.5 197.5,319.5 137.5,319.5C 137.5,317.5 137.5,315.5 137.5,313.5C 197.5,313.5 257.5,313.5 317.5,313.5 Z"/></g>
<g><path style="opacity:0.737" fill="#747474" d="M 353.5,42.5 C 355.674,42.7497 357.341,43.7497 358.5,45.5C 356.011,45.7593 354.344,44.7593 353.5,42.5 Z"/></g>
<g><path style="opacity:0.027" fill="#bbbbbb" d="M 309.5,44.5 C 311.553,44.4021 313.22,45.0687 314.5,46.5C 312.447,46.5979 310.78,45.9313 309.5,44.5 Z"/></g>
<g><path style="opacity:0.004" fill="#d2d2d2" d="M 157.5,56.5 C 157.027,57.9063 156.027,58.573 154.5,58.5C 154.973,57.0937 155.973,56.427 157.5,56.5 Z"/></g>
<g><path style="opacity:0.047" fill="#bababa" d="M 340.5,56.5 C 342.027,56.427 343.027,57.0937 343.5,58.5C 341.973,58.573 340.973,57.9063 340.5,56.5 Z"/></g>
<g><path style="opacity:0.255" fill="#7e7e7e" d="M 117.5,58.5 C 116.461,60.5311 114.795,61.8645 112.5,62.5C 113.579,60.457 115.246,59.1237 117.5,58.5 Z"/></g>
<g><path style="opacity:0.086" fill="#b3b3b3" d="M 348.5,60.5 C 350.027,60.427 351.027,61.0937 351.5,62.5C 349.973,62.573 348.973,61.9063 348.5,60.5 Z"/></g>
<g><path style="opacity:0.098" fill="#acacac" d="M 355.5,64.5 C 357.027,64.427 358.027,65.0937 358.5,66.5C 356.973,66.573 355.973,65.9063 355.5,64.5 Z"/></g>
<g><path style="opacity:0.282" fill="#989898" d="M 108.5,65.5 C 108.027,66.9063 107.027,67.573 105.5,67.5C 105.973,66.0937 106.973,65.427 108.5,65.5 Z"/></g>
<g><path style="opacity:0.345" fill="#9e9e9e" d="M 372.5,75.5 C 374.404,75.7376 375.738,76.7376 376.5,78.5C 374.596,78.2624 373.262,77.2624 372.5,75.5 Z"/></g>
<g><path style="opacity:0.994" fill="#2a2a2a" d="M 309.5,85.5 C 309.702,87.9892 309.202,90.3225 308,92.5C 307.329,91.7476 306.496,91.4142 305.5,91.5C 305.5,90.8333 305.167,90.5 304.5,90.5C 301.063,87.1423 297.397,86.809 293.5,89.5C 292.448,89.6495 291.448,89.4828 290.5,89C 291.696,88.3457 291.696,87.8457 290.5,87.5C 289.676,89.7476 288.676,89.9142 287.5,88C 288.883,86.7292 289.883,85.2292 290.5,83.5C 290.918,82.7784 291.584,82.2784 292.5,82C 298.835,80.5773 304.502,81.744 309.5,85.5 Z"/></g>
<g><path style="opacity:0.004" fill="#c8c8c8" d="M 113.5,84.5 C 113.5,85.8333 112.833,86.5 111.5,86.5C 111.833,85.5 112.5,84.8333 113.5,84.5 Z"/></g>
<g><path style="opacity:0.31" fill="#9a9a9a" d="M 304.5,90.5 C 300.93,88.6338 297.263,88.3005 293.5,89.5C 297.397,86.809 301.063,87.1423 304.5,90.5 Z"/></g>
<g><path style="opacity:0.971" fill="#4b4b4b" d="M 309.5,85.5 C 311.833,87.1667 313.833,89.1667 315.5,91.5C 314.504,91.4142 313.671,91.7476 313,92.5C 311.915,90.3426 310.749,90.1759 309.5,92C 310.312,93.8228 311.312,95.6561 312.5,97.5C 310.18,95.5808 307.847,93.5808 305.5,91.5C 306.496,91.4142 307.329,91.7476 308,92.5C 309.202,90.3225 309.702,87.9892 309.5,85.5 Z"/></g>
<g><path style="opacity:0.235" fill="#a9a9a9" d="M 388.5,88.5 C 390.027,88.427 391.027,89.0937 391.5,90.5C 389.973,90.573 388.973,89.9063 388.5,88.5 Z"/></g>
<g><path style="opacity:0.165" fill="#a1a1a1" d="M 313.5,99.5 C 315.027,99.427 316.027,100.094 316.5,101.5C 314.973,101.573 313.973,100.906 313.5,99.5 Z"/></g>
<g><path style="opacity:0.996" fill="#1f1f1f" d="M 315.5,91.5 C 328.5,103.833 341.167,116.5 353.5,129.5C 353.631,130.239 353.464,130.906 353,131.5C 350.316,131.183 347.816,131.183 345.5,131.5C 345.167,130.833 344.833,130.167 344.5,129.5C 344.027,128.094 343.027,127.427 341.5,127.5C 341.103,126.475 340.437,126.308 339.5,127C 313.5,153 287.5,179 261.5,205C 246.263,206.468 230.93,206.968 215.5,206.5C 215.351,205.448 215.517,204.448 216,203.5C 250.085,169.916 283.585,135.916 316.5,101.5C 316.027,100.094 315.027,99.427 313.5,99.5C 313.167,98.8333 312.833,98.1667 312.5,97.5C 311.312,95.6561 310.312,93.8228 309.5,92C 310.749,90.1759 311.915,90.3426 313,92.5C 313.671,91.7476 314.504,91.4142 315.5,91.5 Z"/></g>
<g><path style="opacity:0.224" fill="#a5a5a5" d="M 407.5,107.5 C 409.027,107.427 410.027,108.094 410.5,109.5C 408.973,109.573 407.973,108.906 407.5,107.5 Z"/></g>
<g><path style="opacity:0.608" fill="#484848" d="M 84.5,113.5 C 81.9255,118.409 78.5922,122.742 74.5,126.5C 75.9301,120.733 79.2634,116.399 84.5,113.5 Z"/></g>
<g><path style="opacity:0.208" fill="#9b9b9b" d="M 440.5,119.5 C 442.262,120.262 443.262,121.596 443.5,123.5C 441.738,122.738 440.738,121.404 440.5,119.5 Z"/></g>
<g><path style="opacity:0.192" fill="#a2a2a2" d="M 341.5,127.5 C 343.027,127.427 344.027,128.094 344.5,129.5C 342.973,129.573 341.973,128.906 341.5,127.5 Z"/></g>
<g><path style="opacity:0.114" fill="#9a9a9a" d="M 444.5,125.5 C 445.906,125.973 446.573,126.973 446.5,128.5C 445.094,128.027 444.427,127.027 444.5,125.5 Z"/></g>
<g><path style="opacity:0.999" fill="#515151" d="M 353.5,129.5 C 355.167,130.5 356.5,131.833 357.5,133.5C 355.131,133.149 352.797,132.982 350.5,133C 350.167,133.333 349.833,133.667 349.5,134C 350.71,135.039 351.71,136.206 352.5,137.5C 349.751,136.026 347.418,134.026 345.5,131.5C 347.816,131.183 350.316,131.183 353,131.5C 353.464,130.906 353.631,130.239 353.5,129.5 Z"/></g>
<g><path style="opacity:0.204" fill="#a3a3a3" d="M 352.5,138.5 C 354.404,138.738 355.738,139.738 356.5,141.5C 354.596,141.262 353.262,140.262 352.5,138.5 Z"/></g>
<g><path style="opacity:0.204" fill="#a6a6a6" d="M 356.5,142.5 C 358.404,142.738 359.738,143.738 360.5,145.5C 358.596,145.262 357.262,144.262 356.5,142.5 Z"/></g>
<g><path style="opacity:0.204" fill="#a4a4a4" d="M 360.5,146.5 C 362.404,146.738 363.738,147.738 364.5,149.5C 362.596,149.262 361.262,148.262 360.5,146.5 Z"/></g>
<g><path style="opacity:0.047" fill="#b1b1b1" d="M 435.5,146.5 C 436.906,146.973 437.573,147.973 437.5,149.5C 436.094,149.027 435.427,148.027 435.5,146.5 Z"/></g>
<g><path style="opacity:0.2" fill="#a1a1a1" d="M 364.5,150.5 C 366.027,150.427 367.027,151.094 367.5,152.5C 365.973,152.573 364.973,151.906 364.5,150.5 Z"/></g>
<g><path style="opacity:0.039" fill="#b2b2b2" d="M 58.5,154.5 C 58.573,156.027 57.9063,157.027 56.5,157.5C 56.427,155.973 57.0937,154.973 58.5,154.5 Z"/></g>
<g><path style="opacity:0.995" fill="#303030" d="M 357.5,133.5 C 371.886,146.885 385.553,160.885 398.5,175.5C 398.66,177.153 399.326,178.486 400.5,179.5C 401.54,184.609 401.04,189.609 399,194.5C 386.668,208.158 373.668,221.158 360,233.5C 358.053,232.956 357.22,231.623 357.5,229.5C 357.577,227.701 358.077,226.034 359,224.5C 370.369,213.298 381.535,201.965 392.5,190.5C 394.213,189.365 394.88,187.698 394.5,185.5C 393.698,182.426 392.698,179.426 391.5,176.5C 391.027,175.094 390.027,174.427 388.5,174.5C 380.826,167.825 373.826,160.492 367.5,152.5C 367.027,151.094 366.027,150.427 364.5,150.5C 364.5,150.167 364.5,149.833 364.5,149.5C 363.738,147.738 362.404,146.738 360.5,146.5C 360.5,146.167 360.5,145.833 360.5,145.5C 359.738,143.738 358.404,142.738 356.5,142.5C 356.5,142.167 356.5,141.833 356.5,141.5C 355.738,139.738 354.404,138.738 352.5,138.5C 352.5,138.167 352.5,137.833 352.5,137.5C 351.71,136.206 350.71,135.039 349.5,134C 349.833,133.667 350.167,133.333 350.5,133C 352.797,132.982 355.131,133.149 357.5,133.5 Z"/></g>
<g><path style="opacity:0.976" fill="#353535" d="M 290.5,83.5 C 289.883,85.2292 288.883,86.7292 287.5,88C 288.676,89.9142 289.676,89.7476 290.5,87.5C 291.696,87.8457 291.696,88.3457 290.5,89C 291.448,89.4828 292.448,89.6495 293.5,89.5C 291.409,90.8006 289.409,92.3006 287.5,94C 250.632,131.368 213.632,168.534 176.5,205.5C 173.302,206.036 170.635,205.369 168.5,203.5C 207.632,163.868 246.965,124.368 286.5,85C 287.745,84.2086 289.078,83.7086 290.5,83.5 Z"/></g>
<g><path style="opacity:0.204" fill="#a0a0a0" d="M 388.5,174.5 C 390.027,174.427 391.027,175.094 391.5,176.5C 389.973,176.573 388.973,175.906 388.5,174.5 Z"/></g>
<g><path style="opacity:0.069" fill="#bdbdbd" d="M 398.5,175.5 C 400.104,176.287 400.771,177.62 400.5,179.5C 399.326,178.486 398.66,177.153 398.5,175.5 Z"/></g>
<g><path style="opacity:0.039" fill="#a7a7a7" d="M 394.5,185.5 C 394.88,187.698 394.213,189.365 392.5,190.5C 392.796,188.597 393.463,186.93 394.5,185.5 Z"/></g>
<g><path style="opacity:0.118" fill="#9a9a9a" d="M 168.5,203.5 C 170.635,205.369 173.302,206.036 176.5,205.5C 173.713,206.477 170.713,206.81 167.5,206.5C 167.263,205.209 167.596,204.209 168.5,203.5 Z"/></g>
<g><path style="opacity:0.976" fill="#575757" d="M 476.5,208.5 C 477.785,211.589 478.451,214.922 478.5,218.5C 477.839,217.282 477.172,215.949 476.5,214.5C 475.808,215.025 475.308,215.692 475,216.5C 474.833,216 474.667,215.5 474.5,215C 476.013,213.121 476.679,210.954 476.5,208.5 Z"/></g>
<g><path style="opacity:1" fill="#1c1c1c" d="M 126.5,213.5 C 162.827,213.729 199.16,213.729 235.5,213.5C 272.22,213.966 308.886,214.8 345.5,216C 348.268,217.762 349.768,220.262 350,223.5C 350.972,265.871 350.639,308.205 349,350.5C 346.658,353.754 343.491,355.588 339.5,356C 263.123,356.988 186.789,356.655 110.5,355C 107.117,353.62 105.284,351.12 105,347.5C 104.333,306.167 104.333,264.833 105,223.5C 105.232,220.262 106.732,217.762 109.5,216C 115.269,214.978 120.936,214.145 126.5,213.5 Z M 270.5,230.5 C 271.568,231.434 272.901,231.768 274.5,231.5C 274.662,233.527 274.495,235.527 274,237.5C 273.25,238.126 272.416,238.626 271.5,239C 276.165,241.946 276.165,245.113 271.5,248.5C 268.5,248.5 265.5,248.5 262.5,248.5C 262.5,242.5 262.5,236.5 262.5,230.5C 265.167,230.5 267.833,230.5 270.5,230.5 Z M 288.5,230.5 C 290.721,235.972 292.721,241.639 294.5,247.5C 293.998,248.521 293.332,248.688 292.5,248C 292.082,244.417 290.082,242.917 286.5,243.5C 284.667,243.585 283.334,244.252 282.5,245.5C 281.596,246.209 281.263,247.209 281.5,248.5C 280.209,248.737 279.209,248.404 278.5,247.5C 281.016,242.797 282.683,237.797 283.5,232.5C 284.779,231.032 286.446,230.365 288.5,230.5 Z M 303.5,230.5 C 305.719,235.709 308.719,240.376 312.5,244.5C 313.775,239.784 313.775,235.117 312.5,230.5C 313.5,230.5 314.5,230.5 315.5,230.5C 315.5,235.833 315.5,241.167 315.5,246.5C 315.209,247.649 314.376,248.316 313,248.5C 312.167,248.167 311.333,247.833 310.5,247.5C 308.07,242.963 305.403,238.63 302.5,234.5C 301.507,239.12 301.173,243.786 301.5,248.5C 299.547,242.926 298.88,236.926 299.5,230.5C 300.833,230.5 302.167,230.5 303.5,230.5 Z M 324.5,230.5 C 324.5,231.5 324.5,232.5 324.5,233.5C 324.338,235.527 324.505,237.527 325,239.5C 326.039,238.756 326.539,237.756 326.5,236.5C 328.5,235.024 330.167,233.191 331.5,231C 332.5,230.333 333.5,230.333 334.5,231C 332.602,233.388 330.935,235.888 329.5,238.5C 330.071,241.313 331.404,243.646 333.5,245.5C 333.414,246.496 333.748,247.329 334.5,248C 333.552,248.483 332.552,248.649 331.5,248.5C 330.342,245.517 328.675,242.85 326.5,240.5C 325.914,240.709 325.414,241.043 325,241.5C 324.503,243.81 324.337,246.143 324.5,248.5C 323.5,248.5 322.5,248.5 321.5,248.5C 321.5,242.5 321.5,236.5 321.5,230.5C 322.5,230.5 323.5,230.5 324.5,230.5 Z M 164.5,254.5 C 164.5,266.167 164.5,277.833 164.5,289.5C 152.833,289.5 141.167,289.5 129.5,289.5C 129.5,277.833 129.5,266.167 129.5,254.5C 141.167,254.5 152.833,254.5 164.5,254.5 Z M 317.5,313.5 C 317.5,315.5 317.5,317.5 317.5,319.5C 257.5,319.5 197.5,319.5 137.5,319.5C 137.5,317.5 137.5,315.5 137.5,313.5C 197.5,313.5 257.5,313.5 317.5,313.5 Z"/></g>
<g><path style="opacity:0.133" fill="#929292" d="M 288.5,230.5 C 286.446,230.365 284.779,231.032 283.5,232.5C 283.5,231.5 283.5,230.5 283.5,229.5C 285.415,229.216 287.081,229.549 288.5,230.5 Z"/></g>
<g><path style="opacity:0.514" fill="#696969" d="M 312.5,230.5 C 313.568,229.566 314.901,229.232 316.5,229.5C 316.822,235.358 316.489,241.025 315.5,246.5C 315.5,241.167 315.5,235.833 315.5,230.5C 314.5,230.5 313.5,230.5 312.5,230.5 Z"/></g>
<g><path style="opacity:0.939" fill="#383838" d="M 265.5,233.5 C 267.167,233.5 268.833,233.5 270.5,233.5C 270.5,234.833 270.5,236.167 270.5,237.5C 269.081,238.451 267.415,238.784 265.5,238.5C 265.5,236.833 265.5,235.167 265.5,233.5 Z"/></g>
<g><path style="opacity:0.494" fill="#737373" d="M 265.5,233.5 C 267.265,232.539 269.265,232.205 271.5,232.5C 271.784,234.415 271.451,236.081 270.5,237.5C 270.5,236.167 270.5,234.833 270.5,233.5C 268.833,233.5 267.167,233.5 265.5,233.5 Z"/></g>
<g><path style="opacity:0.35" fill="#666666" d="M 324.5,233.5 C 325.167,234.5 325.833,235.5 326.5,236.5C 326.539,237.756 326.039,238.756 325,239.5C 324.505,237.527 324.338,235.527 324.5,233.5 Z"/></g>
<g><path style="opacity:0.91" fill="#4d4d4d" d="M 286.5,232.5 C 288.33,234.826 289.663,237.493 290.5,240.5C 288.892,241.318 287.225,241.985 285.5,242.5C 284.5,242.167 283.833,241.5 283.5,240.5C 284.508,237.805 285.508,235.138 286.5,232.5 Z"/></g>
<g><path style="opacity:0.107" fill="#aaaaaa" d="M 270.5,230.5 C 267.833,230.5 265.167,230.5 262.5,230.5C 262.5,236.5 262.5,242.5 262.5,248.5C 265.5,248.5 268.5,248.5 271.5,248.5C 268.375,249.479 265.042,249.813 261.5,249.5C 261.5,242.833 261.5,236.167 261.5,229.5C 264.713,229.19 267.713,229.523 270.5,230.5 Z"/></g>
<g><path style="opacity:0.144" fill="#adadad" d="M 324.5,230.5 C 323.5,230.5 322.5,230.5 321.5,230.5C 321.5,236.5 321.5,242.5 321.5,248.5C 322.5,248.5 323.5,248.5 324.5,248.5C 323.432,249.434 322.099,249.768 320.5,249.5C 320.5,242.833 320.5,236.167 320.5,229.5C 322.099,229.232 323.432,229.566 324.5,230.5 Z"/></g>
<g><path style="opacity:0.992" fill="#454545" d="M 265.5,239.5 C 268.885,238.79 271.219,239.956 272.5,243C 271.219,246.044 268.885,247.21 265.5,246.5C 265.5,244.167 265.5,241.833 265.5,239.5 Z"/></g>
<g><path style="opacity:0.035" fill="#616161" d="M 303.5,230.5 C 302.167,230.5 300.833,230.5 299.5,230.5C 298.88,236.926 299.547,242.926 301.5,248.5C 300.791,249.404 299.791,249.737 298.5,249.5C 298.5,242.833 298.5,236.167 298.5,229.5C 300.415,229.216 302.081,229.549 303.5,230.5 Z"/></g>
<g><path style="opacity:0.404" fill="#6d6d6d" d="M 282.5,245.5 C 282.5,246.833 282.5,248.167 282.5,249.5C 280.712,249.785 279.045,249.452 277.5,248.5C 277.624,247.893 277.957,247.56 278.5,247.5C 277.957,247.56 277.624,247.893 277.5,248.5C 279.045,249.452 280.712,249.785 282.5,249.5C 282.5,248.167 282.5,246.833 282.5,245.5 Z"/></g>
<g><path style="opacity:0.139" fill="#979797" d="M 333.5,245.5 C 335.104,246.287 335.771,247.62 335.5,249.5C 333.901,249.768 332.568,249.434 331.5,248.5C 332.552,248.649 333.552,248.483 334.5,248C 333.748,247.329 333.414,246.496 333.5,245.5 Z"/></g>
<g><path style="opacity:0.141" fill="#5d5d5d" d="M 164.5,254.5 C 152.833,254.5 141.167,254.5 129.5,254.5C 129.5,266.167 129.5,277.833 129.5,289.5C 128.505,277.678 128.172,265.678 128.5,253.5C 140.678,253.172 152.678,253.505 164.5,254.5 Z"/></g>
<g><path style="opacity:0.345" fill="#707070" d="M 456.5,298.5 C 456.706,301.495 456.04,304.162 454.5,306.5C 454.565,303.572 455.232,300.905 456.5,298.5 Z"/></g>
<g><path style="opacity:0.11" fill="#777777" d="M 41.5,297.5 C 42.7682,299.905 43.4349,302.572 43.5,305.5C 41.9605,303.162 41.2938,300.495 41.5,297.5 Z"/></g>
<g><path style="opacity:0.027" fill="#a9a9a9" d="M 313.5,312.5 C 315.099,312.232 316.432,312.566 317.5,313.5C 257.5,313.5 197.5,313.5 137.5,313.5C 137.5,315.5 137.5,317.5 137.5,319.5C 197.5,319.5 257.5,319.5 317.5,319.5C 317.5,320.167 317.167,320.5 316.5,320.5C 256.5,320.5 196.5,320.5 136.5,320.5C 136.5,317.833 136.5,315.167 136.5,312.5C 195.5,312.5 254.5,312.5 313.5,312.5 Z"/></g>
<g><path style="opacity:0.76" fill="#0b0b0b" d="M 313.5,312.5 C 254.5,312.5 195.5,312.5 136.5,312.5C 136.5,315.167 136.5,317.833 136.5,320.5C 196.5,320.5 256.5,320.5 316.5,320.5C 256.336,321.499 196.002,321.832 135.5,321.5C 135.5,318.167 135.5,314.833 135.5,311.5C 195.002,311.168 254.336,311.501 313.5,312.5 Z"/></g>
<g><path style="opacity:0.933" fill="#6b6b6b" d="M 34.5,335.5 C 35.2176,337.246 36.2176,337.912 37.5,337.5C 36.8728,338.417 36.5394,339.417 36.5,340.5C 35.0687,339.22 34.4021,337.553 34.5,335.5 Z"/></g>
<g><path style="opacity:0.067" fill="#9d9d9d" d="M 39.5,347.5 C 40.9063,347.973 41.573,348.973 41.5,350.5C 40.0937,350.027 39.427,349.027 39.5,347.5 Z"/></g>
<g><path style="opacity:0.373" fill="#989898" d="M 60.5,348.5 C 61.9063,348.973 62.573,349.973 62.5,351.5C 61.0937,351.027 60.427,350.027 60.5,348.5 Z"/></g>
<g><path style="opacity:0.067" fill="#c5c5c5" d="M 437.5,348.5 C 437.573,350.027 436.906,351.027 435.5,351.5C 435.427,349.973 436.094,348.973 437.5,348.5 Z"/></g>
<g><path style="opacity:0.173" fill="#a4a4a4" d="M 67.5,360.5 C 68.9063,360.973 69.573,361.973 69.5,363.5C 68.0937,363.027 67.427,362.027 67.5,360.5 Z"/></g>
<g><path style="opacity:0.118" fill="#a8a8a8" d="M 430.5,360.5 C 430.446,362.632 429.446,363.965 427.5,364.5C 428.026,362.77 429.026,361.436 430.5,360.5 Z"/></g>
<g><path style="opacity:0.051" fill="#a4a4a4" d="M 451.5,361.5 C 451.573,363.027 450.906,364.027 449.5,364.5C 449.427,362.973 450.094,361.973 451.5,361.5 Z"/></g>
<g><path style="opacity:0.004" fill="#c3c3c3" d="M 54.5,374.5 C 56.2624,375.262 57.2624,376.596 57.5,378.5C 55.7376,377.738 54.7376,376.404 54.5,374.5 Z"/></g>
<g><path style="opacity:0.239" fill="#888888" d="M 86.5,386.5 C 88.5869,387.585 89.9202,389.251 90.5,391.5C 88.4131,390.415 87.0798,388.749 86.5,386.5 Z"/></g>
<g><path style="opacity:0.118" fill="#a7a7a7" d="M 410.5,388.5 C 409.833,389.833 408.833,390.833 407.5,391.5C 407.5,389.5 408.5,388.5 410.5,388.5 Z"/></g>
<g><path style="opacity:0.396" fill="#858585" d="M 403.5,395.5 C 401.5,399.5 398.5,402.5 394.5,404.5C 397.167,401.167 400.167,398.167 403.5,395.5 Z"/></g>
<g><path style="opacity:0.192" fill="#9d9d9d" d="M 391.5,407.5 C 390.833,408.833 389.833,409.833 388.5,410.5C 388.5,408.5 389.5,407.5 391.5,407.5 Z"/></g>
<g><path style="opacity:0.29" fill="#7e7e7e" d="M 380.5,416.5 C 379.461,418.531 377.795,419.864 375.5,420.5C 376.579,418.457 378.246,417.124 380.5,416.5 Z"/></g>
<g><path style="opacity:0.118" fill="#999999" d="M 105.5,430.5 C 107.027,430.427 108.027,431.094 108.5,432.5C 106.973,432.573 105.973,431.906 105.5,430.5 Z"/></g>
<g><path style="opacity:0.043" fill="#b8b8b8" d="M 146.5,435.5 C 148.027,435.427 149.027,436.094 149.5,437.5C 147.973,437.573 146.973,436.906 146.5,435.5 Z"/></g>
<g><path style="opacity:0.251" fill="#aaaaaa" d="M 351.5,435.5 C 351.027,436.906 350.027,437.573 348.5,437.5C 348.973,436.094 349.973,435.427 351.5,435.5 Z"/></g>
<g><path style="opacity:0.176" fill="#979797" d="M 113.5,436.5 C 115.027,436.427 116.027,437.094 116.5,438.5C 114.973,438.573 113.973,437.906 113.5,436.5 Z"/></g>
<g><path style="opacity:0.365" fill="#9c9c9c" d="M 119.5,440.5 C 121.404,440.738 122.738,441.738 123.5,443.5C 121.596,443.262 120.262,442.262 119.5,440.5 Z"/></g>
<g><path style="opacity:0.004" fill="#bebebe" d="M 377.5,441.5 C 377.027,442.906 376.027,443.573 374.5,443.5C 374.973,442.094 375.973,441.427 377.5,441.5 Z"/></g>
<g><path style="opacity:0.004" fill="#cacaca" d="M 364.5,449.5 C 364.027,450.906 363.027,451.573 361.5,451.5C 361.973,450.094 362.973,449.427 364.5,449.5 Z"/></g>
<g><path style="opacity:0.486" fill="#757575" d="M 315.5,451.5 C 312.916,453.472 309.916,454.472 306.5,454.5C 309.215,452.928 312.215,451.928 315.5,451.5 Z"/></g>
<g><path style="opacity:0.173" fill="#afafaf" d="M 319.5,469.5 C 317.786,470.738 315.786,471.405 313.5,471.5C 315.102,469.926 317.102,469.259 319.5,469.5 Z"/></g>
<g><path style="opacity:0.333" fill="#7c7c7c" d="M 193.5,473.5 C 196.228,473.171 198.562,473.837 200.5,475.5C 197.933,475.279 195.599,474.612 193.5,473.5 Z"/></g>
</svg>
