<svg class="svg-icon" style="width: 1em; height: 1em;vertical-align: middle;fill: currentColor;overflow: hidden;" viewBox="0 0 1024 1024" version="1.1" xmlns="http://www.w3.org/2000/svg"><path d="M733.866667 682.666667h-208.213334c-27.306667 3.413333-54.613333-3.413333-75.093333-13.653334-17.066667-10.24-23.893333-23.893333-23.893333-37.546666V614.4c0-6.826667 10.24-17.066667 17.066666-23.893333 3.413333-6.826667 10.24-10.24 13.653334-13.653334l68.266666-85.333333c17.066667-23.893333 10.24-58.026667-13.653333-81.92l-6.826667-6.826667c-20.48-17.066667-51.2-17.066667-75.093333 0L317.44 512c-23.893333 0-47.786667 6.826667-71.68 13.653333-6.826667 3.413333-13.653333 13.653333-10.24 20.48 3.413333 6.826667 3.413333 13.653333 3.413333 20.48-10.24 105.813333-30.72 215.04-34.133333 225.28 0 3.413333 0 10.24 3.413333 13.653334 3.413333 3.413333 6.826667 6.826667 10.24 6.826666l204.8 37.546667c3.413333 3.413333 13.653333 3.413333 20.48 3.413333 40.96 0 122.88-17.066667 143.36-37.546666l153.6-102.4c6.826667-3.413333 10.24-13.653333 6.826667-20.48 0-6.826667-6.826667-10.24-13.653333-10.24zM197.973333 549.546667C160.426667 515.413333 40.96 512 17.066667 512c-3.413333 0-10.24 3.413333-13.653334 3.413333 0 3.413333-3.413333 10.24-3.413333 13.653334v307.2c0 6.826667 6.826667 17.066667 17.066667 17.066666 58.026667 0 143.36-51.2 146.773333-54.613333 3.413333-3.413333 6.826667-6.826667 6.826667-10.24 0 0 23.893333-116.053333 34.133333-225.28 0-3.413333 0-10.24-6.826667-13.653333z" fill="" /><path d="M682.666667 430.08v44.373333c20.48-3.413333 34.133333-13.653333 34.133333-23.893333 0-6.826667-6.826667-13.653333-34.133333-20.48zM614.4 365.226667c0 6.826667 6.826667 17.066667 34.133333 20.48V341.333333c-20.48 3.413333-34.133333 13.653333-34.133333 23.893334z" fill="" /><path d="M1006.933333 170.666667h-682.666666c-10.24 0-17.066667 6.826667-17.066667 17.066666v245.76c0 6.826667 3.413333 13.653333 10.24 17.066667 6.826667 3.413333 13.653333 0 17.066667-3.413333l71.68-71.68 3.413333-3.413334c30.72-27.306667 85.333333-27.306667 119.466667 0l3.413333 3.413334 3.413333 6.826666c34.133333 37.546667 40.96 88.746667 17.066667 126.293334l-3.413333 3.413333-68.266667 85.333333c-3.413333 3.413333-6.826667 10.24-17.066667 17.066667-3.413333 3.413333-6.826667 10.24-3.413333 13.653333 0 6.826667 3.413333 10.24 10.24 13.653334 6.826667 3.413333 17.066667 6.826667 27.306667 6.826666h508.586666c10.24 0 17.066667-6.826667 17.066667-17.066666v-443.733334c0-10.24-6.826667-17.066667-17.066667-17.066666zM682.666667 508.586667v17.066666c0 10.24-6.826667 17.066667-17.066667 17.066667s-17.066667-6.826667-17.066667-13.653333V512c-37.546667-3.413333-64.853333-27.306667-68.266666-54.613333 0-10.24 6.826667-17.066667 13.653333-17.066667 10.24 0 17.066667 6.826667 17.066667 13.653333 0 10.24 13.653333 20.48 34.133333 23.893334v-51.2c-27.306667-6.826667-68.266667-17.066667-68.266667-58.026667 0-30.72 27.306667-54.613333 68.266667-58.026667v-20.48c3.413333-10.24 10.24-17.066667 20.48-17.066666s17.066667 6.826667 17.066667 17.066666V307.2c37.546667 3.413333 64.853333 27.306667 68.266666 54.613333 0 10.24-6.826667 17.066667-13.653333 17.066667-10.24 0-17.066667-6.826667-17.066667-13.653333 0-10.24-13.653333-20.48-34.133333-23.893334v51.2c27.306667 6.826667 68.266667 17.066667 68.266667 58.026667-3.413333 30.72-30.72 54.613333-71.68 58.026667zM904.533333 273.066667h-68.266666c-10.24 0-17.066667-10.24-17.066667-17.066667s6.826667-17.066667 17.066667-17.066667h68.266666c10.24 0 17.066667 6.826667 17.066667 17.066667s-6.826667 17.066667-17.066667 17.066667z" fill="" /></svg>