<svg version="1.1" id="Layer_1" xmlns:x="ns_extend;" xmlns:i="ns_ai;" xmlns:graph="ns_graphs;" xmlns="http://www.w3.org/2000/svg" xmlns:xlink="http://www.w3.org/1999/xlink" x="0px" y="0px" viewBox="0 0 184 24" style="enable-background:new 0 0 184 24;" xml:space="preserve">
 <style type="text/css">
  .st0{fill:#0C1142;}
 </style>
 <metadata>
  <sfw xmlns="ns_sfw;">
   <slices>
   </slices>
   <sliceSourceBounds bottomLeftOrigin="true"  width="368" height="48" x="108.3" y="-212.2">
   </sliceSourceBounds>
  </sfw>
 </metadata>
 <g>

  <path class="st0" d="M31.3,18.4c-0.8-0.3-1.5-0.8-2.1-1.5c-0.6-0.6-1-1.4-1.3-2.2c-0.3-0.8-0.5-1.8-0.5-2.7s0.1-1.9,0.4-2.7
		c0.3-0.8,0.7-1.6,1.3-2.2c0.6-0.6,1.2-1.1,2-1.5c0.8-0.3,1.7-0.5,2.7-0.5c0.9,0,1.6,0.1,2.3,0.3c0.7,0.2,1.2,0.6,1.8,1
		c0.5,0.4,0.9,0.9,1.2,1.5c0.3,0.6,0.5,1.3,0.6,2h-3.4c-0.1-0.6-0.4-1.1-0.8-1.5s-1-0.6-1.6-0.6c-1.1,0-1.8,0.4-2.4,1.1
		c-0.5,0.7-0.8,1.8-0.8,3s0.2,2.2,0.8,3c0.5,0.8,1.3,1.1,2.4,1.1c0.7,0,1.3-0.2,1.7-0.5c0.4-0.4,0.7-0.9,0.9-1.7h3.4
		c0,0.7-0.2,1.4-0.5,2c-0.3,0.6-0.7,1.1-1.2,1.6c-0.5,0.4-1.1,0.8-1.8,1.1c-0.7,0.2-1.5,0.4-2.4,0.4C33,19,32.1,18.8,31.3,18.4z">
  </path>
  <path class="st0" d="M45.3,7.1c0.5-0.7,1-1.2,1.6-1.6C47.4,5.2,48.1,5,49,5c0.7,0,1.3,0.1,1.8,0.4c0.5,0.2,1,0.6,1.4,1
		c0.4,0.4,0.7,1,0.9,1.6c0.2,0.6,0.3,1.3,0.3,2v8.6h-3.5v-8.1c0-0.7-0.2-1.3-0.6-1.8c-0.4-0.4-1-0.7-1.7-0.7c-0.8,0-1.4,0.3-1.9,0.8
		c-0.5,0.5-0.8,1.3-0.8,2.2v7.5h-3.5V0.1h3.5L45.3,7.1L45.3,7.1z">
  </path>
  <path class="st0" d="M59.2,18.4c-0.8-0.3-1.5-0.8-2.1-1.5c-0.6-0.6-1-1.4-1.3-2.2c-0.3-0.9-0.4-1.8-0.4-2.7s0.1-1.9,0.5-2.7
		c0.3-0.8,0.8-1.6,1.3-2.2c0.6-0.6,1.2-1.1,2-1.5C59.9,5.2,60.8,5,61.7,5c1.1,0,2,0.2,2.7,0.6c0.8,0.4,1.4,0.9,2,1.6
		c0.5,0.7,1,1.6,1.2,2.5c0.3,1,0.4,2.1,0.4,3.2h-9.4c0.1,1,0.5,1.9,1,2.4c0.5,0.6,1.3,0.9,2.3,0.9c0.7,0,1.2-0.1,1.6-0.4
		c0.4-0.3,0.7-0.7,0.9-1.2H68c-0.1,0.6-0.3,1.1-0.6,1.7c-0.3,0.5-0.7,1-1.2,1.4c-0.5,0.4-1.1,0.7-1.8,0.9c-0.7,0.2-1.4,0.3-2.3,0.3
		C61,19,60,18.8,59.2,18.4z M59.7,8.5c-0.5,0.5-0.8,1.2-1,2.1h5.8c0-0.8-0.3-1.5-0.8-2.1c-0.5-0.5-1.2-0.8-1.9-0.8
		C60.9,7.7,60.2,8,59.7,8.5z">
  </path>
  <path class="st0" d="M73.3,18.4c-0.8-0.3-1.5-0.8-2.1-1.5c-0.6-0.6-1-1.4-1.3-2.2c-0.3-0.8-0.5-1.8-0.5-2.7s0.1-1.9,0.4-2.7
		c0.3-0.8,0.7-1.6,1.3-2.2c0.6-0.6,1.2-1.1,2-1.5c0.8-0.3,1.7-0.5,2.7-0.5c0.9,0,1.6,0.1,2.3,0.3c0.7,0.2,1.2,0.6,1.8,1
		c0.5,0.4,0.9,0.9,1.2,1.5c0.3,0.6,0.5,1.3,0.6,2h-3.4c-0.1-0.6-0.4-1.1-0.8-1.5c-0.4-0.4-1-0.6-1.6-0.6c-1.1,0-1.8,0.4-2.4,1.1
		c-0.5,0.7-0.8,1.8-0.8,3s0.2,2.2,0.8,3c0.5,0.8,1.3,1.1,2.4,1.1c0.7,0,1.3-0.2,1.7-0.5c0.4-0.4,0.7-0.9,0.9-1.7h3.3
		c0,0.7-0.2,1.4-0.5,2c-0.3,0.6-0.7,1.1-1.2,1.6c-0.5,0.4-1.1,0.8-1.8,1.1c-0.7,0.2-1.5,0.4-2.4,0.4C75,19,74.1,18.8,73.3,18.4z">
  </path>
  <path class="st0" d="M87.2,14.1v4.4h-3.4V0.1h3.4v10.2l4.6-5h4.1l-4.8,5l5.4,8.2h-4.2l-3.7-6L87.2,14.1z">
  </path>
  <path class="st0" d="M100.3,18.4c-0.8-0.3-1.5-0.8-2.2-1.5c-0.6-0.6-1.1-1.4-1.4-2.2c-0.3-0.8-0.5-1.8-0.5-2.7s0.1-1.9,0.5-2.7
		c0.3-0.8,0.8-1.6,1.4-2.2c0.6-0.6,1.3-1.1,2.2-1.5c0.8-0.3,1.7-0.5,2.7-0.5c1,0,1.9,0.2,2.7,0.5c0.8,0.3,1.5,0.8,2.2,1.5
		c0.6,0.6,1.1,1.4,1.4,2.2c0.3,0.8,0.5,1.8,0.5,2.7s-0.1,1.9-0.5,2.7c-0.3,0.8-0.8,1.6-1.4,2.2c-0.6,0.6-1.3,1.1-2.2,1.5
		C105,18.8,104,19,103,19C102,19,101.1,18.8,100.3,18.4z M105.5,15.1c0.6-0.8,0.9-1.8,0.9-3.1s-0.3-2.3-0.9-3.1
		c-0.6-0.8-1.4-1.2-2.4-1.2s-1.9,0.4-2.4,1.2c-0.6,0.8-0.9,1.9-0.9,3.1s0.3,2.3,0.9,3.1c0.6,0.8,1.4,1.2,2.4,1.2
		S104.9,15.9,105.5,15.1z">
  </path>
  <path class="st0" d="M119.9,17L119.9,17c-0.5,0.6-1.1,1.1-1.6,1.4c-0.6,0.3-1.3,0.5-2.2,0.5c-1.4,0-2.5-0.4-3.4-1.3
		c-0.8-0.9-1.2-2-1.2-3.5V5.4h3.4v8.2c0,0.8,0.2,1.4,0.5,1.8c0.3,0.4,0.9,0.6,1.6,0.6c0.8,0,1.4-0.3,1.9-0.8
		c0.5-0.5,0.7-1.3,0.7-2.2V5.4h3.5v13.2h-3.3L119.9,17L119.9,17z">
  </path>
  <path class="st0" d="M126.6,5.4V1.2h3.4v4.2h2.2v2.3h-2.2v7c0,0.5,0.1,0.8,0.3,1c0.2,0.2,0.5,0.3,1,0.3h0.7c0.1,0,0.2,0,0.3,0v2.6
		c-0.2,0-0.3,0-0.6,0c-0.2,0-0.4,0-0.7,0h-0.9c-0.4,0-0.8,0-1.2-0.1c-0.4-0.1-0.8-0.2-1.1-0.5c-0.3-0.2-0.6-0.6-0.8-1
		c-0.2-0.4-0.3-0.9-0.3-1.6V7.7h-1.8V5.4H126.6z">
  </path>


 </g>
</svg>