<?xml version="1.0" encoding="utf-8"?>
<!-- Generator: Adobe Illustrator 25.0.1, SVG Export Plug-In . SVG Version: 6.00 Build 0)  -->
<svg version="1.0" id="Layer_1" xmlns="http://www.w3.org/2000/svg" xmlns:xlink="http://www.w3.org/1999/xlink" x="0px" y="0px"
	 viewBox="0 0 896 552.9" style="enable-background:new 0 0 896 552.9;" xml:space="preserve">
<style type="text/css">
	.st0{fill:#11172A;}
</style>
<path class="st0" d="M627.1,304.5c4.2,0.1,7.6-3.2,7.7-7.4c0.1-4.2-3.2-7.6-7.4-7.7c-4.2-0.1-7.6,3.2-7.7,7.4c0,0,0,0.1,0,0.1
	C619.7,301.1,623,304.4,627.1,304.5C627.1,304.5,627.1,304.5,627.1,304.5z"/>
<path class="st0" d="M202.5,302.5c-3.2-1.3-6.1-3.3-8.4-5.9c-4.9-5.5-7.5-12.6-7.4-20c0-3.8,0.6-7.5,1.7-11.1
	c1.1-3.3,2.9-6.4,5.2-8.9c2.3-2.5,5.1-4.5,8.2-5.9c3.4-1.5,7.1-2.2,10.9-2.2c3.1-0.1,6.2,0.4,9.1,1.4c2.6,1,5,2.3,7.2,4
	c2.1,1.6,3.8,3.7,4.9,6.1c1.3,2.5,2.2,5.1,2.5,7.9h-13.6c-0.4-2.3-1.6-4.4-3.3-5.9c-1.8-1.6-4-2.4-6.4-2.4c-4.3,0-7.4,1.6-9.5,4.5
	s-3.1,7.1-3.1,12.3s1,9.1,3.1,12.3c1.9,3.2,5.2,4.5,9.5,4.5c2.5,0.1,5-0.7,7-2.2c1.9-1.8,3.2-4.3,3.5-6.9h13.6
	c-0.2,2.7-0.9,5.4-2.1,7.9c-2.4,5-6.7,9-12,10.9c-3.1,1.1-6.3,1.6-9.5,1.6C209.8,304.6,206,304,202.5,302.5z"/>
<path class="st0" d="M259,256.6c1.7-2.5,3.9-4.7,6.4-6.3c2.7-1.5,5.8-2.3,8.9-2.2c2.5,0,5.1,0.5,7.4,1.6c2.1,1,4.1,2.4,5.6,4.1
	c1.6,1.9,2.8,4,3.7,6.3c1,2.6,1.4,5.3,1.4,8.1v34.8h-14v-32.8c0.1-2.6-0.7-5.1-2.3-7.1c-1.7-1.9-4.2-2.9-6.8-2.8
	c-2.9-0.1-5.7,1.2-7.6,3.4c-2.1,2.5-3.2,5.6-3.1,8.9v30.5h-14v-74.5h14v28.1H259z"/>
<path class="st0" d="M315.4,302.5c-3.3-1.3-6.2-3.3-8.5-5.9c-2.4-2.6-4.2-5.7-5.2-9.1c-1.2-3.6-1.8-7.3-1.8-11.1
	c-0.1-3.8,0.6-7.5,1.9-11.1c1.3-3.2,3-6.2,5.2-8.9c2.3-2.5,5.1-4.5,8.2-5.9c3.3-1.5,6.9-2.2,10.5-2.2c7.5-0.2,14.6,3.1,19.2,8.9
	c2.3,3,4,6.5,5,10.1c1.2,4.2,1.8,8.6,1.8,13h-38.1c0.6,4.1,1.9,7.5,4.1,9.9s5.2,3.6,9.3,3.6c2.3,0.1,4.6-0.5,6.6-1.8
	c1.6-1.2,2.9-2.8,3.5-4.7h13.8c-0.5,2.4-1.3,4.6-2.5,6.7c-1.3,2.1-2.9,4-4.9,5.5c-2.1,1.7-4.6,3-7.2,3.8c-2.9,1-6,1.5-9.1,1.4
	C323.2,304.7,319.1,303.9,315.4,302.5z M317.5,262.1c-1.9,2-3.1,4.9-3.9,8.3h23.3c-0.1-3.1-1.3-6-3.3-8.3c-2-2.1-4.8-3.3-7.8-3.2
	C322.2,259.2,319.4,260.2,317.5,262.1L317.5,262.1z"/>
<path class="st0" d="M372.5,302.5c-3.2-1.3-6.1-3.3-8.4-5.9c-4.9-5.5-7.5-12.6-7.4-20c0-3.8,0.6-7.5,1.8-11.1
	c1.1-3.3,2.9-6.4,5.2-8.9c2.3-2.5,5.1-4.5,8.2-5.9c3.4-1.5,7.1-2.2,10.9-2.2c3.1-0.1,6.2,0.4,9.1,1.4c2.6,1,5,2.3,7.2,4
	c2.1,1.6,3.8,3.7,4.9,6.1c1.3,2.5,2.2,5.1,2.5,7.9h-13.6c-0.4-2.3-1.5-4.4-3.3-5.9c-1.8-1.6-4-2.4-6.4-2.4c-4.3,0-7.4,1.6-9.5,4.5
	s-3.1,7.1-3.1,12.3s1,9.1,3.1,12.3c1.9,3.2,5.2,4.5,9.5,4.5c2.5,0.1,5-0.7,7-2.2c1.9-1.8,3.2-4.3,3.5-6.9H407
	c-0.2,2.7-0.9,5.4-2.1,7.9c-2.4,5-6.7,9-12,10.9c-3.1,1.1-6.3,1.6-9.5,1.6C379.6,304.6,375.9,303.9,372.5,302.5z"/>
<path class="st0" d="M428.6,285.1v18h-13.8v-74.5h13.8v41.3l18.6-20.2H464l-19.4,20.4l21.8,33h-16.9l-14.8-24.3L428.6,285.1z"/>
<path class="st0" d="M481.6,302.5c-3.3-1.4-6.3-3.4-8.7-5.9c-2.4-2.6-4.3-5.6-5.6-8.9c-2.6-7.2-2.6-15,0-22.1
	c1.3-3.3,3.2-6.3,5.6-8.9c2.4-2.6,5.4-4.7,8.7-5.9c7.1-2.9,15-2.9,22.1,0c3.3,1.4,6.3,3.4,8.7,5.9c2.4,2.6,4.3,5.6,5.6,8.9
	c2.6,7.2,2.6,15,0,22.1c-1.3,3.3-3.2,6.3-5.6,8.9c-2.4,2.6-5.4,4.7-8.7,5.9C496.7,305.4,488.7,305.4,481.6,302.5z M502.6,289
	c2.3-3.2,3.5-7.3,3.5-12.6s-1.2-9.5-3.5-12.6c-2.3-3.2-6-5.1-9.9-4.9c-3.9-0.2-7.7,1.7-9.9,4.9c-2.3,3.2-3.5,7.5-3.5,12.6
	s1.2,9.5,3.5,12.6c4.4,5.5,12.4,6.3,17.9,2C501.4,290.4,502.1,289.7,502.6,289z"/>
<path class="st0" d="M560.9,296.7h-0.4c-1.6,2.3-3.7,4.2-6,5.7c-2.3,1.4-5.2,2-8.9,2c-5.8,0-10.3-1.8-13.6-5.1
	c-3.1-3.6-4.7-8.1-4.7-14v-35.6h13.8v33.2c0,3.2,0.8,5.5,2.1,7.1c1.7,1.8,4.1,2.7,6.6,2.6c3,0.1,5.8-1.1,7.8-3.4
	c2-2.4,3.1-5.5,2.9-8.7v-30.8h14v53.4h-13.4v-6.3L560.9,296.7z"/>
<path class="st0" d="M587.9,249.7v-16.8h13.6v16.8h8.9v9.3h-8.9v28.3c0,2,0.4,3.4,1.4,4.1c1.1,0.9,2.5,1.3,3.9,1.2h2.7
	c0.5,0,0.9,0,1.4-0.2v10.7c-0.8,0-1.4,0.2-2.3,0.2c-0.8,0-1.8,0.2-2.7,0.2h-3.7c-1.7,0-3.4-0.2-5-0.6c-1.6-0.3-3.1-1-4.5-2
	c-1.4-1-2.5-2.4-3.3-4c-0.9-2-1.4-4.1-1.4-6.3V259h-7.2v-9.3H587.9z"/>
<path class="st0" d="M654.7,302.3c-2.9-1.4-5.5-3.4-7.6-5.9c-2.2-2.6-3.7-5.6-4.7-8.9c-1-3.7-1.6-7.5-1.5-11.3
	c0-3.8,0.5-7.6,1.5-11.3c1-3.2,2.6-6.2,4.7-8.9c2.1-2.5,4.7-4.5,7.6-5.9c3.2-1.5,6.7-2.2,10.3-2.2c5.8,0,10.7,1.6,14.4,4.5
	s6,7.3,7,12.9h-6.2c-0.8-4-2.3-7.1-5-9.1c-2.5-2-5.8-3-9.9-3c-2.8-0.1-5.5,0.5-8,1.8c-2.2,1.2-4.1,2.9-5.4,5
	c-1.5,2.2-2.6,4.7-3.1,7.3c-1.4,5.9-1.3,12,0.2,17.8c0.7,2.6,1.8,5.1,3.3,7.3c1.4,2.1,3.2,3.8,5.4,4.9c2.4,1.2,5.1,1.8,7.8,1.8
	c4,0.1,7.9-1.3,10.9-4c2.7-2.6,4.3-6.1,4.9-10.5h6c-0.6,6.1-2.7,10.9-6.6,14.6c-3.7,3.5-8.7,5.3-15.2,5.3
	C661.7,304.5,658.1,303.7,654.7,302.3z"/>
<path class="st0" d="M706.6,302.3c-3-1.3-5.7-3.4-7.8-5.9c-2.1-2.6-3.8-5.7-4.8-8.9c-1.2-3.6-1.8-7.4-1.8-11.3
	c0-3.8,0.6-7.6,1.8-11.3c1-3.3,2.7-6.3,4.8-8.9c2.1-2.6,4.8-4.6,7.8-5.9c6.6-2.9,14-2.9,20.6,0c3,1.4,5.6,3.4,7.8,5.9
	c2.1,2.6,3.8,5.7,4.9,8.9c1.1,3.6,1.7,7.5,1.5,11.3c0,3.8-0.5,7.6-1.5,11.3c-1,3.3-2.7,6.3-4.9,8.9c-2.1,2.6-4.7,4.6-7.8,5.9
	c-3.2,1.5-6.7,2.2-10.3,2.2C713.3,304.5,709.8,303.7,706.6,302.3z M724.6,297.3c2.3-1.2,4.2-2.9,5.6-4.9c1.6-2.2,2.7-4.7,3.3-7.3
	c1.6-5.8,1.6-12,0-17.8c-0.7-2.6-1.8-5-3.3-7.3c-1.4-2.1-3.4-3.8-5.6-5c-2.4-1.2-5.1-1.8-7.8-1.8c-2.7-0.1-5.4,0.5-7.8,1.8
	c-2.2,1.2-4.2,2.9-5.6,5c-1.6,2.2-2.8,4.7-3.5,7.3c-1.6,5.8-1.6,12,0,17.8c0.7,2.6,1.9,5.1,3.5,7.3c1.5,2,3.4,3.7,5.6,4.9
	C714,299.7,719.7,299.7,724.6,297.3L724.6,297.3z"/>
<path class="st0" d="M756.7,249.1v8.1h0.2c1.7-2.6,3.8-4.9,6.4-6.7c2.5-1.8,5.8-2.6,9.7-2.6c3.1-0.1,6.1,0.8,8.8,2.4
	c2.6,1.8,4.5,4.3,5.4,7.3h0.2c1.6-3,4.1-5.5,7-7.3c3-1.8,6.4-2.7,9.9-2.6c2.1,0,4.2,0.4,6.2,1.2c4,1.4,7,4.5,8.4,8.5
	c0.8,2.3,1.2,4.7,1.2,7.1v38.6h-6.2v-37.8c0-4-1-6.9-3.1-8.9c-2.2-1.9-5.1-2.9-8-2.8c-1.9,0-3.7,0.3-5.4,1c-1.7,0.7-3.2,1.7-4.5,3
	c-2.9,3-4.4,7-4.3,11.1v34.4h-6.4v-37.8c0-4-1-6.9-3.1-8.9c-2-2-4.5-2.8-7.6-2.8c-1.9,0-3.7,0.4-5.4,1.2c-1.8,0.8-3.4,1.9-4.8,3.2
	c-1.4,1.4-2.6,3.1-3.3,4.9c-0.8,1.9-1.2,4-1.2,6.1v34h-6.4v-54L756.7,249.1z"/>
<path class="st0" d="M134.3,276.6l24.9-44.3c0.6-0.9,0.6-2.1,0-3c-0.6-0.8-1.5-1.3-2.5-1.4h-51.3c-1,0.1-1.9,0.6-2.5,1.4L76.4,275
	c-0.6,0.9-0.6,2.1,0,3l26.4,45.7c0.5,0.9,1.5,1.4,2.5,1.4h51.3c1,0,1.9-0.6,2.5-1.4c0.6-0.9,0.6-2.1,0-3L134.3,276.6z M131,270.6
	l-20.6-36.8h41.4L131,270.6z M105.2,236.8l22.3,39.7l-22.3,39.7l-22.9-39.7L105.2,236.8z M110.4,319.1l20.6-36.8l20.6,36.8
	L110.4,319.1z"/>
</svg>
