<?xml version="1.0" encoding="UTF-8"?>
<svg version="1.1" xmlns="http://www.w3.org/2000/svg" width="512" height="173">
<path d="M0 0 C3.22945891 -0.35946274 4.61122293 -0.28063601 7.2890625 1.65234375 C8.05992188 2.40644531 8.83078125 3.16054688 9.625 3.9375 C14.36044236 8.41527859 19.26127249 12.5641015 24.33251953 16.65478516 C27.01725254 18.82065322 29.6972669 20.99232944 32.37646484 23.16503906 C33.81454287 24.33104827 35.25364317 25.49579801 36.69384766 26.65917969 C37.35304199 27.19317383 38.01223633 27.72716797 38.69140625 28.27734375 C39.28123291 28.75421631 39.87105957 29.23108887 40.47875977 29.72241211 C42 31 42 31 44 33 C44 38.22525255 41.76771346 40.93935229 38.47265625 44.6796875 C37 46 37 46 35 46 C34.896875 46.61875 34.79375 47.2375 34.6875 47.875 C34 50 34 50 31 52 C30.505 52.99 30.505 52.99 30 54 C29 56 29 56 26 58 C25.67 58.99 25.34 59.98 25 61 C23.35821577 62.69118305 21.6865965 64.35350439 20 66 C18.05691593 68.16886734 16.18409248 70.39436733 14.3125 72.625 C13.82716797 73.19734375 13.34183594 73.7696875 12.84179688 74.359375 C10.74977468 76.84094615 8.80237338 79.29643993 7 82 C6.34 82 5.68 82 5 82 C4.6596875 83.0828125 4.6596875 83.0828125 4.3125 84.1875 C2.72766751 87.58356963 0.67165198 89.36576612 -2 92 C-4.02305236 94.23357915 -5.98143717 96.52021457 -7.9375 98.8125 C-8.46674072 99.42689941 -8.99598145 100.04129883 -9.54125977 100.67431641 C-12.8384267 104.53210845 -15.8996875 108.44901197 -18.62109375 112.7421875 C-20 114 -20 114 -22.453125 114.34375 C-26.52812497 113.79375 -28.0930993 111.83929836 -31 109 C-31 108.34 -31 107.68 -31 107 C-31.639375 106.896875 -32.27875 106.79375 -32.9375 106.6875 C-33.618125 106.460625 -34.29875 106.23375 -35 106 C-35.33 105.01 -35.66 104.02 -36 103 C-36.825 102.67 -37.65 102.34 -38.5 102 C-39.325 101.67 -40.15 101.34 -41 101 C-41.33 100.01 -41.66 99.02 -42 98 C-44.50447516 96.78130071 -44.50447516 96.78130071 -47 96 C-47 95.34 -47 94.68 -47 94 C-47.53625 93.773125 -48.0725 93.54625 -48.625 93.3125 C-51.82460161 91.54429911 -54.29037223 89.46329797 -57 87 C-57 86.34 -57 85.68 -57 85 C-52.3871288 85.30966034 -48.22396285 85.75587947 -43.9375 87.5625 C-39.69503119 89.26962888 -36.57048068 89.52448139 -32 89 C-28.91182268 87.74612994 -28.91182268 87.74612994 -27 85 C-25.94058052 81.20142357 -25.42912337 77.68439972 -26.7109375 73.90234375 C-28.35152341 71.48123667 -30.0211512 70.49822287 -32.5625 69.0625 C-33.44808594 68.55589844 -34.33367187 68.04929687 -35.24609375 67.52734375 C-36.15488281 67.02332031 -37.06367187 66.51929687 -38 66 C-39.31677734 65.25943359 -39.31677734 65.25943359 -40.66015625 64.50390625 C-42.76763409 63.32492103 -44.88042842 62.15706082 -47 61 C-46.50446667 56.36382379 -44.6886357 53.99723179 -41.6875 50.5 C-40.90761719 49.5821875 -40.12773438 48.664375 -39.32421875 47.71875 C-38.17373047 46.37296875 -38.17373047 46.37296875 -37 45 C-36.28457031 44.0615625 -35.56914063 43.123125 -34.83203125 42.15625 C-34.22746094 41.4446875 -33.62289062 40.733125 -33 40 C-32.34 40 -31.68 40 -31 40 C-30.896875 39.38125 -30.79375 38.7625 -30.6875 38.125 C-30 36 -30 36 -27 34 C-26.71125 33.401875 -26.4225 32.80375 -26.125 32.1875 C-24.91070085 29.82636276 -23.36972527 28.34710794 -21.48876953 26.50512695 C-18.64456616 23.62967372 -16.02399657 20.55420837 -13.375 17.5 C-12.80265625 16.84902344 -12.2303125 16.19804687 -11.640625 15.52734375 C-8.71798991 12.16291498 -6.19562469 8.89937241 -4 5 C-3.01904252 3.98131338 -2.02297922 2.97648017 -1 2 C-0.67 1.34 -0.34 0.68 0 0 Z M-21.75 43.5625 C-25.52674191 47.6539704 -27.06280318 52.01684887 -26.9453125 57.59765625 C-26.18256637 62.75786732 -24.77217611 66.39438622 -20.76171875 69.8125 C-15.39830261 73.42775167 -10.52265035 74.61685652 -4.109375 73.56640625 C0.82770064 72.24071001 3.34778843 70.13050005 5.875 65.75 C7.62736163 59.90879458 7.86350044 55.40086547 5.5 49.8125 C3.01640641 45.35431786 -0.37750063 43.01582679 -5 41 C-11.34986761 39.32898221 -16.07909928 40.34039732 -21.75 43.5625 Z " fill="#000000" transform="translate(107,0)"/>
<path d="M0 0 C2.87286858 1.37556843 5.39003467 3.18437194 8 5 C9.89265507 6.19255903 11.78863618 7.37985193 13.6875 8.5625 C16.43089841 10.28159047 18.88496988 11.89407726 21.26953125 14.08984375 C28.86079171 19.40046802 38.7042429 18.24280802 47.5625 18.125 C49.50479492 18.11146484 49.50479492 18.11146484 51.48632812 18.09765625 C54.65774771 18.07425094 57.82877373 18.04146228 61 18 C61.33 17.34 61.66 16.68 62 16 C61.42032471 16.02618408 60.84064941 16.05236816 60.2434082 16.0793457 C57.60005125 16.18370612 54.95712801 16.24844327 52.3125 16.3125 C51.40048828 16.35439453 50.48847656 16.39628906 49.54882812 16.43945312 C44.91126463 16.52377246 42.71667817 16.52562379 38.87890625 13.7109375 C36.47604112 10.24401774 36.53185332 8.13529566 37 4 C38 2 38 2 41 1 C43.98977594 0.90234308 46.95554937 0.86009347 49.9453125 0.8671875 C50.82976044 0.86623077 51.71420837 0.86527405 52.62545776 0.86428833 C54.49998038 0.86360755 56.37450535 0.86545475 58.24902344 0.86962891 C61.09315424 0.87494053 63.93712436 0.86970028 66.78125 0.86328125 C68.60677118 0.86394279 70.43229226 0.86522553 72.2578125 0.8671875 C73.09877472 0.86516327 73.93973694 0.86313904 74.80618286 0.86105347 C91.36790459 0.92546554 91.36790459 0.92546554 97.66796875 6.265625 C104.73242075 14.54890205 115 31.85199378 115 43 C109.96499475 43.57320777 104.92959469 44.14276428 99.89379883 44.70898438 C98.18177212 44.90199826 96.4698563 45.0959984 94.75805664 45.29101562 C92.29341875 45.57162499 89.82840004 45.84865116 87.36328125 46.125 C86.60163162 46.21249512 85.83998199 46.29999023 85.05525208 46.39013672 C76.73507847 47.3150851 76.73507847 47.3150851 74 47 C73.34 46.01 72.68 45.02 72 44 C66.40266916 41.41999808 61.80433014 40.56792888 55.6953125 40.59375 C54.9312912 40.58291382 54.1672699 40.57207764 53.38009644 40.56091309 C50.96164378 40.52696989 48.54365823 40.51113251 46.125 40.5 C20.96902486 40.38370102 20.96902486 40.38370102 12.5 32.8125 C11.59636719 32.02359375 10.69273438 31.2346875 9.76171875 30.421875 C8.85035156 29.62265625 7.93898438 28.8234375 7 28 C4.27991237 25.85888685 1.54377449 23.74054179 -1.19921875 21.62890625 C-1.79347656 21.09136719 -2.38773438 20.55382812 -3 20 C-3 19.34 -3 18.68 -3 18 C-3.763125 17.7525 -4.52625 17.505 -5.3125 17.25 C-8.40974934 15.80941891 -9.47511304 15.04977392 -11 12 C-11.68327068 7.95037134 -11.63907537 5.02252059 -9.4375 1.5 C-5.9587775 -0.64075231 -4.03894206 -0.60584131 0 0 Z " fill="#000000" transform="translate(53,115)"/>
<path d="M0 0 C-0.71474173 4.3842405 -1.91712875 6.73028807 -5 10 C-5.66 10 -6.32 10 -7 10 C-7.26554687 10.57363281 -7.53109375 11.14726563 -7.8046875 11.73828125 C-10.1524724 16.18065856 -13.29833558 21.10887509 -18.23828125 22.73828125 C-20.4375 23 -20.4375 23 -24 23 C-24.34462364 25.37893493 -24.34462364 25.37893493 -24 28 C-22.30186875 29.68313466 -22.30186875 29.68313466 -19.875 30.875 C-18.97523437 31.37515625 -18.07546875 31.8753125 -17.1484375 32.390625 C-14.87180807 33.55436114 -12.59228711 34.68857424 -10.2890625 35.796875 C-9.6614502 36.10125488 -9.03383789 36.40563477 -8.38720703 36.71923828 C-6.56804643 37.59234123 -4.73731137 38.44120147 -2.90625 39.2890625 C0.06949295 41.04091117 1.00570113 41.76538216 2 45 C2.41707387 48.89268943 2.57456191 51.10368342 0.4375 54.4375 C-3.03586108 56.66401351 -4.90237087 56.52872634 -9 56 C-11.52023743 55.1316829 -13.94684131 54.12957674 -16.39453125 53.07421875 C-18.90764906 52.03807573 -21.38693998 51.24248644 -24 50.5 C-27.54496387 49.46231279 -31.03423534 48.34224356 -34.5 47.0625 C-35.3146875 46.76472656 -36.129375 46.46695313 -36.96875 46.16015625 C-39.42348708 44.75812373 -39.89165599 43.54207343 -41 41 C-45.31179198 38.33683436 -49.25116774 39.1866187 -54 40 C-57.465 40.495 -57.465 40.495 -61 41 C-61 29.12 -61 17.24 -61 5 C-57.04 4.01 -53.08 3.02 -49 2 C-46.49570165 1.30701668 -43.99473008 0.60167596 -41.5 -0.125 C-39.33453621 -0.75415502 -37.16803499 -1.37976318 -35 -2 C-34.31035156 -2.19851562 -33.62070312 -2.39703125 -32.91015625 -2.6015625 C-22.19007459 -4.83765315 -10.58833515 -1.86071162 0 0 Z " fill="#000000" transform="translate(76,31)"/>
<path d="M0 0 C3.63 0 7.26 0 11 0 C11.33 1.65 11.66 3.3 12 5 C12.76828125 4.1853125 13.5365625 3.370625 14.328125 2.53125 C18.7075876 -1.1122982 23.29038065 -0.66431139 28.75 -0.5 C30.18666016 -0.50386719 30.18666016 -0.50386719 31.65234375 -0.5078125 C36.87032098 -0.43421621 36.87032098 -0.43421621 39 0 C40.82840669 2.74261004 41.56534195 4.52070862 42.4375 7.625 C43.41208311 11.00650807 44.43077543 14.35519987 45.5625 17.6875 C46.8279242 21.43049157 47.94674597 25.1920816 49 29 C49.66 29 50.32 29 51 29 C51.11601562 28.34773438 51.23203125 27.69546875 51.3515625 27.0234375 C52.1789604 23.16557018 53.2635311 19.40928699 54.375 15.625 C54.58382812 14.89539063 54.79265625 14.16578125 55.0078125 13.4140625 C56.36752129 8.77115444 58.01009013 4.41038504 60 0 C63.63 0 67.26 0 71 0 C71.17883503 4.25463734 70.7521232 7.38312223 69.20703125 11.34375 C68.82627441 12.33624756 68.44551758 13.32874512 68.05322266 14.35131836 C67.64378418 15.3903833 67.2343457 16.42944824 66.8125 17.5 C65.98232142 19.65726304 65.15289028 21.81481386 64.32421875 23.97265625 C63.7216626 25.52944092 63.7216626 25.52944092 63.10693359 27.11767578 C60.34198 34.31728807 57.75465945 41.58143825 55.4375 48.9375 C53.80589385 53.83231845 52.01869179 58.43796021 47.82421875 61.68359375 C44.25783758 63.34593186 41.60426611 63.29731587 37.6875 63.1875 C36.43324219 63.16042969 35.17898438 63.13335937 33.88671875 63.10546875 C32.93410156 63.07066406 31.98148437 63.03585938 31 63 C31 59.37 31 55.74 31 52 C32.258125 51.938125 33.51625 51.87625 34.8125 51.8125 C38.08281467 51.40081145 38.74155721 51.28193759 41.0625 48.75 C42.72307215 43.87898837 40.63102237 39.75075592 38.8125 35.125 C38.36777344 33.98933594 37.92304688 32.85367188 37.46484375 31.68359375 C35.6855538 27.20927262 33.89989319 22.73755892 32.10424805 18.26977539 C30.33774345 13.86885718 28.63513676 9.45120563 27 5 C26.855625 6.093125 26.71125 7.18625 26.5625 8.3125 C26.03125 10.25390625 26.03125 10.25390625 25 12 C22.75336432 13.1362792 20.64121915 13.73184402 18.19140625 14.296875 C15.56638312 15.13912841 14.66312562 15.80219433 13 18 C12.49335383 20.90087655 12.49335383 20.90087655 12.48828125 24.19921875 C12.45283203 25.40771484 12.41738281 26.61621094 12.38085938 27.86132812 C12.34702148 29.7552832 12.34702148 29.7552832 12.3125 31.6875 C12.27833984 32.96173828 12.24417969 34.23597656 12.20898438 35.54882812 C12.12639805 38.69890643 12.06152609 41.84943999 12 45 C8.04 45 4.08 45 0 45 C0 30.15 0 15.3 0 0 Z " fill="#000000" transform="translate(441,106)"/>
<path d="M0 0 C4.8675 -0.12375 9.735 -0.2475 14.75 -0.375 C16.25916992 -0.42962402 17.76833984 -0.48424805 19.32324219 -0.54052734 C29.03739339 -0.6589926 36.99579295 1.0359122 44.69824219 7.40405273 C46 8.8125 46 8.8125 48 12 C48.58201172 12.84691406 48.58201172 12.84691406 49.17578125 13.7109375 C52.29440186 19.13369361 52.3881171 24.58319243 52.4375 30.6875 C52.4475708 31.50758545 52.4576416 32.3276709 52.46801758 33.17260742 C52.34233422 41.94102731 48.22428839 47.9222235 42.875 54.6875 C31.43330763 63.89060039 12.38514209 60 0 60 C0 40.2 0 20.4 0 0 Z M13 11 C13 23.21 13 35.42 13 48 C26.03103721 49.04349839 26.03103721 49.04349839 33 45 C38.14496916 39.42628341 39.40984196 35.29465277 39.25 27.83203125 C38.87758775 23.61329868 37.98439005 20.76349838 36 17 C33.46955394 15.41622598 33.46955394 15.41622598 31 15 C31 14.34 31 13.68 31 13 C24.88582797 10.1953202 24.88582797 10.1953202 13 11 Z " fill="#000000" transform="translate(192,91)"/>
<path d="M0 0 C5.11214233 3.07026624 8.98382638 7.31393351 11.6796875 12.609375 C12.34696342 16.60268513 12.71118206 20.55917491 12.6796875 24.609375 C11.6796875 25.609375 11.6796875 25.609375 8.62866211 25.72290039 C7.27977479 25.72274134 5.93088136 25.71705112 4.58203125 25.70703125 C3.51874352 25.70490883 3.51874352 25.70490883 2.43397522 25.70274353 C0.16167038 25.69712943 -2.11053725 25.68457463 -4.3828125 25.671875 C-5.91992046 25.66686181 -7.45702995 25.66229859 -8.99414062 25.65820312 C-12.76956892 25.64715542 -16.54492421 25.62988141 -20.3203125 25.609375 C-18.20704724 30.31780124 -18.20704724 30.31780124 -14.3203125 33.609375 C-10.90459397 34.10968706 -10.90459397 34.10968706 -7.3203125 33.609375 C-6.5159375 32.949375 -5.7115625 32.289375 -4.8828125 31.609375 C-1.15597157 28.7006211 1.01427618 29.16505011 5.6796875 29.609375 C8.1796875 30.609375 8.1796875 30.609375 9.6796875 31.609375 C8.13378083 35.89034731 6.61701434 39.39761072 2.65625 41.875 C-5.0822795 45.11438444 -13.08731923 46.51686223 -21.16015625 43.57421875 C-27.17066926 40.32944556 -31.99486522 36.14234363 -34.3203125 29.609375 C-35.42595104 21.71656846 -35.75963135 13.26764403 -31.03515625 6.44921875 C-23.06962483 -2.09694366 -10.87598003 -4.55511634 0 0 Z M-18.3203125 9.609375 C-20.67479472 13.34459314 -20.67479472 13.34459314 -21.3203125 17.609375 C-14.7203125 17.609375 -8.1203125 17.609375 -1.3203125 17.609375 C-1.96675911 12.72722613 -1.96675911 12.72722613 -4.3203125 9.609375 C-9.57269641 7.77104063 -13.22285509 6.76428249 -18.3203125 9.609375 Z " fill="#000000" transform="translate(282.3203125,107.390625)"/>
<path d="M0 0 C1.02734253 -0.0151062 1.02734253 -0.0151062 2.07543945 -0.03051758 C8.84150341 0.0846599 14.18569635 2.68569635 18.9375 7.4375 C23.27421002 14.20389772 22.9375 19.03350257 22.9375 27.4375 C12.0475 27.4375 1.1575 27.4375 -10.0625 27.4375 C-8.0825 30.4075 -8.0825 30.4075 -6.0625 33.4375 C-6.0625 34.0975 -6.0625 34.7575 -6.0625 35.4375 C-0.56778249 35.76071868 3.39804055 35.9839527 7.9375 32.4375 C8.2675 32.1075 8.5975 31.7775 8.9375 31.4375 C16.23161765 31.20220588 16.23161765 31.20220588 19.9375 32.4375 C19.74750769 36.5223346 19.24043818 38.11978435 16.375 41.125 C9.25923282 46.33986484 1.65532652 47.64352343 -7.0625 46.4375 C-13.31097038 44.29107888 -18.66973808 40.15672724 -22.0625 34.4375 C-23.90764107 27.75448904 -24.42351568 18.97437072 -21.875 12.4375 C-16.46307765 3.47983541 -10.18670079 0.09824913 0 0 Z M-10.0625 15.4375 C-10.3925 16.7575 -10.7225 18.0775 -11.0625 19.4375 C-4.1325 19.4375 2.7975 19.4375 9.9375 19.4375 C8.7956071 12.8011635 8.7956071 12.8011635 6.08984375 11.02734375 C-0.71887505 9.16143352 -5.67422586 9.40362306 -10.0625 15.4375 Z " fill="#000000" transform="translate(412.0625,105.5625)"/>
<path d="M0 0 C3.96 0 7.92 0 12 0 C15.32159419 6.91998791 17.97636272 13.6798266 20.10546875 21.0546875 C20.93292812 23.7791607 21.90069425 26.37522592 23 29 C25.99320605 22.8384535 28.10449559 16.60495163 30.05078125 10.04296875 C31.13944208 6.55298196 32.45995504 3.31109665 34 0 C37.63 0 41.26 0 45 0 C43.78041452 7.02981577 41.96409208 13.19345495 39.1875 19.75 C38.46920532 21.4899999 37.75307026 23.23089283 37.0390625 24.97265625 C36.51747559 26.24326904 36.51747559 26.24326904 35.98535156 27.53955078 C34.13779357 32.15295252 32.52394509 36.84383446 30.91015625 41.54296875 C30 44 30 44 29 45 C26.81360547 45.07258946 24.62499611 45.08373783 22.4375 45.0625 C20.64119141 45.04896484 20.64119141 45.04896484 18.80859375 45.03515625 C17.88175781 45.02355469 16.95492188 45.01195312 16 45 C13.52710085 40.31001885 11.50916274 35.79822934 9.9140625 30.75 C8.70995988 27.12740067 7.35390172 23.56881575 6 20 C0 4.10257985 0 4.10257985 0 0 Z " fill="#000000" transform="translate(342,106)"/>
<path d="M0 0 C4.29 0 8.58 0 13 0 C13.01981934 1.40805908 13.03963867 2.81611816 13.06005859 4.2668457 C13.13604295 9.48333844 13.22477144 14.69954961 13.31738281 19.91577148 C13.35570221 22.17482959 13.39054981 24.43394932 13.421875 26.69311523 C13.46746107 29.93756157 13.52546638 33.18158248 13.5859375 36.42578125 C13.59748871 37.43836502 13.60903992 38.45094879 13.62094116 39.49421692 C13.64081085 40.43496567 13.66068054 41.37571442 13.68115234 42.3449707 C13.69447601 43.17325882 13.70779968 44.00154694 13.7215271 44.85493469 C13.87738759 47.29596133 13.87738759 47.29596133 16 50 C19.08365871 50.2502157 19.08365871 50.2502157 22 50 C22.99 55.445 22.99 55.445 24 61 C11.46815573 64.51771067 11.46815573 64.51771067 5.1875 61.3125 C1.74339293 58.81383409 1.18663448 57.93242357 0 54 C-0.24050903 51.34867859 -0.24050903 51.34867859 -0.22705078 48.4753418 C-0.22689972 47.39459885 -0.22674866 46.3138559 -0.22659302 45.20036316 C-0.21627045 44.0449855 -0.20594788 42.88960785 -0.1953125 41.69921875 C-0.1924826 40.50770706 -0.18965271 39.31619537 -0.18673706 38.08857727 C-0.17555433 34.28811544 -0.1504528 30.48789044 -0.125 26.6875 C-0.11496775 24.10872737 -0.10584233 21.52995103 -0.09765625 18.95117188 C-0.07562116 12.63402352 -0.041104 6.3170519 0 0 Z " fill="#000000" transform="translate(299,89)"/>
<path d="M0 0 C1.093125 0.00257812 2.18625 0.00515625 3.3125 0.0078125 C4.405625 0.00523438 5.49875 0.00265625 6.625 0 C9.3125 0.1328125 9.3125 0.1328125 10.3125 1.1328125 C10.4052833 2.51441365 10.42997043 3.90069288 10.42602539 5.28540039 C10.42594986 6.16623795 10.42587433 7.0470755 10.42579651 7.9546051 C10.42063522 8.91189011 10.41547394 9.86917511 10.41015625 10.85546875 C10.4087413 11.83067978 10.40732635 12.80589081 10.40586853 13.81065369 C10.40025133 16.93890393 10.38769593 20.06708373 10.375 23.1953125 C10.36998722 25.31054584 10.36542393 27.42578031 10.36132812 29.54101562 C10.35027631 34.73830857 10.33300016 39.93554858 10.3125 45.1328125 C5.6925 45.1328125 1.0725 45.1328125 -3.6875 45.1328125 C-3.71214455 38.88484996 -3.73033343 32.63691547 -3.74243164 26.38891602 C-3.74747298 24.26163236 -3.75430591 22.13435219 -3.76293945 20.00708008 C-3.77501379 16.95653424 -3.78073014 13.90603405 -3.78515625 10.85546875 C-3.79031754 9.89818375 -3.79547882 8.94089874 -3.80079651 7.9546051 C-3.80087204 7.07376755 -3.80094757 6.19292999 -3.80102539 5.28540039 C-3.803246 4.50596573 -3.80546661 3.72653107 -3.80775452 2.92347717 C-3.60884066 -0.03847406 -2.98164286 0.14734863 0 0 Z " fill="#000000" transform="translate(328.6875,105.8671875)"/>
<path d="M0 0 C1.66015625 1.2578125 1.66015625 1.2578125 4.03515625 3.9453125 C4.03515625 5.2653125 4.03515625 6.5853125 4.03515625 7.9453125 C1.03515625 9.9453125 1.03515625 9.9453125 -1.96484375 9.9453125 C-2.48046875 9.2646875 -2.99609375 8.5840625 -3.52734375 7.8828125 C-6.53842195 5.48939137 -7.49094899 5.80138851 -11.21484375 6.1953125 C-12.80131308 6.42457107 -14.3860442 6.66811869 -15.96484375 6.9453125 C-16.10921875 7.6671875 -16.25359375 8.3890625 -16.40234375 9.1328125 C-16.96484375 11.9453125 -16.96484375 11.9453125 -17.71484375 14.2578125 C-18.07960403 18.17898552 -16.79823838 21.48851557 -14.96484375 24.9453125 C-11.53344602 26.66101136 -7.71720202 26.47449123 -3.96484375 25.9453125 C-1.84128808 24.12259323 -1.84128808 24.12259323 -0.96484375 21.9453125 C0.68515625 22.2753125 2.33515625 22.6053125 4.03515625 22.9453125 C4.41015625 25.6953125 4.41015625 25.6953125 4.03515625 28.9453125 C-0.39655349 33.14975507 -5.05636981 34.0072895 -10.96484375 33.9453125 C-16.67964434 33.17042428 -19.33190444 31.15410184 -22.7421875 26.734375 C-25.92548491 22.0763871 -26.87574807 17.53671455 -25.96484375 11.9453125 C-24.54543472 7.36323966 -22.81816021 3.40096854 -18.98046875 0.38671875 C-12.94328593 -2.70680224 -6.10114635 -3.27496921 0 0 Z " fill="#000000" transform="translate(213.96484375,39.0546875)"/>
<path d="M0 0 C1.45792884 -0.05399736 2.91642712 -0.09279177 4.375 -0.125 C5.18710938 -0.14820312 5.99921875 -0.17140625 6.8359375 -0.1953125 C9 0 9 0 11 2 C11.24723816 3.94215393 11.24723816 3.94215393 11.24291992 6.34204102 C11.24599655 7.2395961 11.24907318 8.13715118 11.25224304 9.06190491 C11.24505753 10.03276535 11.23787201 11.00362579 11.23046875 12.00390625 C11.22978142 13.49433693 11.22978142 13.49433693 11.2290802 15.01487732 C11.22605609 17.11727084 11.2181651 19.21966209 11.20581055 21.32202148 C11.18755565 24.55265169 11.1853008 27.78299549 11.18554688 31.01367188 C11.1806318 33.05208583 11.17480353 35.09049783 11.16796875 37.12890625 C11.16685593 38.10179092 11.1657431 39.0746756 11.16459656 40.07704163 C11.15821671 40.97144455 11.15183685 41.86584747 11.14526367 42.78735352 C11.14145187 43.57852066 11.13764008 44.36968781 11.13371277 45.18482971 C11 47 11 47 10 48 C8.00041636 48.04080783 5.99954746 48.04254356 4 48 C2.29576534 42.62951262 1.41609797 37.47708618 0.875 31.875 C0.79008301 31.02131836 0.70516602 30.16763672 0.61767578 29.28808594 C-0.26374162 19.5304229 -0.17687144 9.78688635 0 0 Z " fill="#000000" transform="translate(0,31)"/>
<path d="M0 0 C3.61884168 1.89662185 5.68786858 4.06360575 7 8 C7.14573058 9.47965926 7.24663268 10.96403843 7.31640625 12.44921875 C7.35830078 13.29677734 7.40019531 14.14433594 7.44335938 15.01757812 C7.48267578 15.89865234 7.52199219 16.77972656 7.5625 17.6875 C7.60568359 18.58017578 7.64886719 19.47285156 7.69335938 20.39257812 C7.79935353 22.59490108 7.90142051 24.79733473 8 27 C4.65747276 27.07427838 2.1964086 27.06546953 -1 26 C-1.99 26.33 -2.98 26.66 -4 27 C-12.65012407 27.41191067 -12.65012407 27.41191067 -16 25 C-17.62679415 21.7464117 -17.67681296 18.50468494 -17 15 C-14.04429074 11.26647252 -14.04429074 11.26647252 -11 10 C-7.62035919 9.61274949 -4.38371098 9.69907709 -1 10 C-1.33 9.01 -1.66 8.02 -2 7 C-6.68965706 5.88341499 -9.53763531 6.19380477 -14 8 C-14.33 6.35 -14.66 4.7 -15 3 C-10.41658882 -0.66672895 -5.62665191 -0.97972054 0 0 Z M-11 17 C-11 17.99 -11 18.98 -11 20 C-8.83075548 21.32006573 -8.83075548 21.32006573 -6 22 C-2.71558321 20.73361924 -2.71558321 20.73361924 0 19 C0 18.01 0 17.02 0 16 C-4.06231189 13.96884405 -7.33315625 14.5554375 -11 17 Z " fill="#000000" transform="translate(237,46)"/>
<path d="M0 0 C1.98 0 3.96 0 6 0 C6.33 3.63 6.66 7.26 7 11 C8.32 10.34 9.64 9.68 11 9 C14.66355972 8.67289645 17.09017113 8.5211427 20.375 10.25 C23.22453373 13.31872863 23.12356964 16.7231354 23.09765625 20.765625 C23.09443359 21.65507813 23.09121094 22.54453125 23.08789062 23.4609375 C23.07951172 24.38132812 23.07113281 25.30171875 23.0625 26.25 C23.05798828 27.18585938 23.05347656 28.12171875 23.04882812 29.0859375 C23.03706918 31.39069041 23.02063426 33.69531227 23 36 C21.00045254 36.04254356 18.99958364 36.04080783 17 36 C15.48578999 34.48578999 15.78690144 33.07527232 15.68359375 30.96484375 C15.62075195 29.75151367 15.62075195 29.75151367 15.55664062 28.51367188 C15.51732422 27.66353516 15.47800781 26.81339844 15.4375 25.9375 C15.39431641 25.08349609 15.35113281 24.22949219 15.30664062 23.34960938 C15.20023298 21.23327963 15.09958269 19.11666187 15 17 C12.14069472 15.70582012 12.14069472 15.70582012 9.875 16.75 C7.68023926 17.93604785 7.68023926 17.93604785 7 21 C6.77281504 23.56634861 6.58391816 26.11678107 6.4375 28.6875 C6.37272461 29.7403418 6.37272461 29.7403418 6.30664062 30.81445312 C6.2008264 32.54275206 6.09993419 34.2713511 6 36 C4.02 36 2.04 36 0 36 C0 24.12 0 12.24 0 0 Z " fill="#000000" transform="translate(272,37)"/>
<path d="M0 0 C5.59698276 4.31767241 5.59698276 4.31767241 6.1875 8.6875 C6.54635512 14.24975435 6.48861155 17.95590677 3.1875 22.6875 C-1.53907569 26.0636255 -6.1941831 26.42620463 -11.8125 25.6875 C-16.03090829 24.09387909 -18.00768215 21.58166462 -20.08984375 17.5859375 C-21.60576075 13.60358258 -21.15762514 10.03662553 -20.125 6 C-15.97641232 -1.30941639 -7.42774266 -3.46627991 0 0 Z M-11.5625 7.3125 C-13.54528873 9.84639617 -13.80884069 10.50087539 -13.875 13.875 C-12.64694815 17.12572548 -11.96912596 18.23715834 -8.8125 19.6875 C-5.68569901 19.69424926 -5.68569901 19.69424926 -2.8125 18.6875 C-0.32413035 14.95494552 -0.27023448 13.10309065 -0.8125 8.6875 C-2.99748756 6.15558501 -2.99748756 6.15558501 -5.8125 4.6875 C-9.08444332 4.34226213 -9.08444332 4.34226213 -11.5625 7.3125 Z " fill="#000000" transform="translate(329.8125,47.3125)"/>
<path d="M0 0 C1 1 1 1 1.1328125 3.03125 C1.13023437 3.8459375 1.12765625 4.660625 1.125 5.5 C1.12886719 6.72203125 1.12886719 6.72203125 1.1328125 7.96875 C1 10 1 10 0 11 C-1.47354348 11.09304018 -2.95150591 11.11746265 -4.42797852 11.11352539 C-5.36887833 11.11344986 -6.30977814 11.11337433 -7.27919006 11.11329651 C-8.30209641 11.10813522 -9.32500275 11.10297394 -10.37890625 11.09765625 C-11.42070541 11.0962413 -12.46250458 11.09482635 -13.53587341 11.09336853 C-16.87811094 11.0877508 -20.22028257 11.0751953 -23.5625 11.0625 C-25.82226466 11.05748728 -28.08203037 11.05292398 -30.34179688 11.04882812 C-35.89455391 11.03777561 -41.44727225 11.02102024 -47 11 C-47.04254356 9.00045254 -47.04080783 6.99958364 -47 5 C-45.05750998 3.05750998 -41.54764677 3.33991844 -38.88671875 3.02734375 C-38.16192825 2.93997452 -37.43713776 2.85260529 -36.69038391 2.7625885 C-35.1463139 2.57800415 -33.60196525 2.39573856 -32.05737305 2.21557617 C-29.73443507 1.94300727 -27.41317716 1.65853771 -25.09179688 1.37304688 C-8.2223254 -0.64880406 -8.2223254 -0.64880406 0 0 Z " fill="#000000" transform="translate(172,162)"/>
<path d="M0 0 C1.98 0 3.96 0 6 0 C6 0.99 6 1.98 6 3 C6.66 2.505 7.32 2.01 8 1.5 C12.07400419 -0.5370021 14.46723344 -0.43865483 19 0 C21.17476401 1.54338091 21.81832637 2.63665273 23 5 C23.08426094 6.6674606 23.10725143 8.33825187 23.09765625 10.0078125 C23.09443359 10.99394531 23.09121094 11.98007812 23.08789062 12.99609375 C23.07951172 14.02863281 23.07113281 15.06117187 23.0625 16.125 C23.05798828 17.16527344 23.05347656 18.20554687 23.04882812 19.27734375 C23.03701952 21.85161962 23.02055075 24.42578146 23 27 C21.02 27 19.04 27 17 27 C16.92652344 25.33710937 16.92652344 25.33710937 16.8515625 23.640625 C16.77650785 22.17705935 16.70096119 20.71351888 16.625 19.25 C16.5940625 18.52039063 16.563125 17.79078125 16.53125 17.0390625 C16.3251506 13.26057344 16.08487157 10.22053332 14 7 C11.08482708 8.07401108 9.22189824 8.77810176 7 11 C6.6936141 13.73434962 6.4886664 16.38279821 6.375 19.125 C6.33632813 19.87910156 6.29765625 20.63320312 6.2578125 21.41015625 C6.16348969 23.27303184 6.08065338 25.13648255 6 27 C4.02 27 2.04 27 0 27 C0 18.09 0 9.18 0 0 Z " fill="#000000" transform="translate(339,46)"/>
<path d="M0 0 C0.61875 0.495 1.2375 0.99 1.875 1.5 C1.215 3.15 0.555 4.8 -0.125 6.5 C-0.66125 6.355625 -1.1975 6.21125 -1.75 6.0625 C-5.1685037 5.25285439 -8.60266273 4.5 -12.125 4.5 C-11.795 5.49 -11.465 6.48 -11.125 7.5 C-8.66802966 8.64182251 -8.66802966 8.64182251 -5.75 9.5 C0.63582485 11.52189705 0.63582485 11.52189705 2.875 14.5 C3.30990509 17.90675656 3.26845822 19.8067641 1.5625 22.8125 C-1.23402427 25.60902427 -4.10180666 25.67969205 -7.875 25.75 C-12.69245164 25.72174515 -15.87965701 24.71496156 -20.125 22.5 C-19.8125 20.5625 -19.8125 20.5625 -19.125 18.5 C-15.78730383 17.38743461 -15.35243866 17.69314033 -12.125 18.5 C-9.79199067 18.53888349 -7.45790199 18.5448635 -5.125 18.5 C-5.125 17.84 -5.125 17.18 -5.125 16.5 C-9.415 15.18 -13.705 13.86 -18.125 12.5 C-18.73050459 2.20642202 -18.73050459 2.20642202 -16.25 -0.6875 C-10.61123491 -2.15357892 -5.32697204 -2.55694658 0 0 Z " fill="#000000" transform="translate(266.125,47.5)"/>
<path d="M0 0 C1 4.875 1 4.875 1 6 C2.918125 5.938125 2.918125 5.938125 4.875 5.875 C7.0546875 5.8046875 7.0546875 5.8046875 9 6 C11.77042109 8.77042109 11.39796106 10.76533805 11.625 14.625 C11.69976562 15.81351563 11.77453125 17.00203125 11.8515625 18.2265625 C11.92503906 19.59941406 11.92503906 19.59941406 12 21 C8.25 22.125 8.25 22.125 6 21 C6 21.66 6 22.32 6 23 C4.33388095 23.042721 2.66617115 23.04063832 1 23 C0 22 0 22 -0.1875 19.5625 C0 17 0 17 2 15 C1.01 15.495 1.01 15.495 0 16 C-6.47058824 16.35294118 -6.47058824 16.35294118 -10 14 C-10.29296875 10.9609375 -10.29296875 10.9609375 -10.1875 7.375 C-10.16042969 6.18648437 -10.13335937 4.99796875 -10.10546875 3.7734375 C-10.07066406 2.85820313 -10.03585938 1.94296875 -10 1 C-6.58093768 0.27021695 -3.50129871 -0.10003711 0 0 Z " fill="#000000" transform="translate(96,46)"/>
<path d="M0 0 C4.62 0 9.24 0 14 0 C14 3.96 14 7.92 14 12 C9.38 12 4.76 12 0 12 C0 8.04 0 4.08 0 0 Z " fill="#000000" transform="translate(325,90)"/>
</svg>
