<?xml version="1.0" encoding="UTF-8"?>
<!DOCTYPE svg PUBLIC "-//W3C//DTD SVG 1.1//EN" "http://www.w3.org/Graphics/SVG/1.1/DTD/svg11.dtd">
<svg xmlns="http://www.w3.org/2000/svg" version="1.1" width="360px" height="360px" style="shape-rendering:geometricPrecision; text-rendering:geometricPrecision; image-rendering:optimizeQuality; fill-rule:evenodd; clip-rule:evenodd" xmlns:xlink="http://www.w3.org/1999/xlink">
<g><path style="opacity:1" fill="#b38660" d="M 211.5,77.5 C 185.773,86.7424 159.773,95.4091 133.5,103.5C 133.5,107.5 133.5,111.5 133.5,115.5C 132.834,111.979 132.167,108.313 131.5,104.5C 122.729,102.02 114.063,99.3531 105.5,96.5C 116.241,92.8576 126.908,88.6909 137.5,84C 146.624,81.0747 155.957,78.7414 165.5,77C 170.523,73.5299 176.023,71.0299 182,69.5C 192.084,70.722 201.917,73.3886 211.5,77.5 Z"/></g>
<g><path style="opacity:0.82" fill="#a17b63" d="M 212.5,75.5 C 214.031,76.9245 213.698,77.5912 211.5,77.5C 201.917,73.3886 192.084,70.722 182,69.5C 176.023,71.0299 170.523,73.5299 165.5,77C 155.957,78.7414 146.624,81.0747 137.5,84C 126.908,88.6909 116.241,92.8576 105.5,96.5C 104.833,96.5 104.167,96.5 103.5,96.5C 103.5,95.8333 103.167,95.5 102.5,95.5C 128.803,85.3408 155.47,75.8408 182.5,67C 193.069,67.913 203.069,70.7464 212.5,75.5 Z"/></g>
<g><path style="opacity:1" fill="#b2855f" d="M 226.5,80.5 C 240.469,84.3783 254.136,89.0449 267.5,94.5C 267.38,95.5862 266.713,96.2528 265.5,96.5C 238.812,104.182 212.145,111.849 185.5,119.5C 173.322,116.789 161.322,113.456 149.5,109.5C 148.833,112.977 148.166,116.311 147.5,119.5C 147.5,115.833 147.5,112.167 147.5,108.5C 174.645,99.9513 201.645,91.1179 228.5,82C 227.584,81.7216 226.918,81.2216 226.5,80.5 Z"/></g>
<g><path style="opacity:1" fill="#debea4" d="M 212.5,75.5 C 217.534,76.3982 222.201,78.0649 226.5,80.5C 226.918,81.2216 227.584,81.7216 228.5,82C 201.645,91.1179 174.645,99.9513 147.5,108.5C 147.5,112.167 147.5,115.833 147.5,119.5C 142.733,118.475 138.066,117.142 133.5,115.5C 133.5,111.5 133.5,107.5 133.5,103.5C 159.773,95.4091 185.773,86.7424 211.5,77.5C 213.698,77.5912 214.031,76.9245 212.5,75.5 Z"/></g>
<g><path style="opacity:1" fill="#98673f" d="M 103.5,96.5 C 104.167,96.5 104.833,96.5 105.5,96.5C 114.063,99.3531 122.729,102.02 131.5,104.5C 132.167,108.313 132.834,111.979 133.5,115.5C 138.066,117.142 142.733,118.475 147.5,119.5C 148.166,116.311 148.833,112.977 149.5,109.5C 161.322,113.456 173.322,116.789 185.5,119.5C 185.5,146.833 185.5,174.167 185.5,201.5C 173.16,206.342 162.494,213.675 153.5,223.5C 151.173,223.335 149.007,222.669 147,221.5C 146.329,222.252 145.496,222.586 144.5,222.5C 144.833,221.833 145.167,221.167 145.5,220.5C 152.554,219.061 154.054,215.395 150,209.5C 143.25,204.25 135.583,201.583 127,201.5C 119.492,201.308 112.325,202.642 105.5,205.5C 106.66,203.797 105.993,203.131 103.5,203.5C 103.5,167.833 103.5,132.167 103.5,96.5 Z"/></g>
<g><path style="opacity:1" fill="#eabb92" d="M 267.5,94.5 C 269.411,94.5743 270.578,95.5743 271,97.5C 271.499,102.155 271.666,106.821 271.5,111.5C 270.839,141.694 269.839,172.027 268.5,202.5C 260.981,202.175 253.648,202.508 246.5,203.5C 244.549,208.352 242.215,213.019 239.5,217.5C 235.4,218.192 231.4,219.192 227.5,220.5C 225.72,215.257 222.72,210.924 218.5,207.5C 216.026,205.76 213.359,204.26 210.5,203C 201.998,201.614 193.664,201.114 185.5,201.5C 185.5,174.167 185.5,146.833 185.5,119.5C 212.145,111.849 238.812,104.182 265.5,96.5C 266.713,96.2528 267.38,95.5862 267.5,94.5 Z"/></g>
<g><path style="opacity:0.293" fill="#8d6250" d="M 102.5,95.5 C 102.236,129.016 102.236,162.516 102.5,196C 102.431,197.986 101.765,199.486 100.5,200.5C 100.333,171.498 100.5,142.498 101,113.5C 101.172,107.319 101.672,101.319 102.5,95.5 Z"/></g>
<g><path style="opacity:0.908" fill="#815030" d="M 102.5,95.5 C 103.167,95.5 103.5,95.8333 103.5,96.5C 103.5,132.167 103.5,167.833 103.5,203.5C 105.993,203.131 106.66,203.797 105.5,205.5C 104.041,205.433 102.708,205.766 101.5,206.5C 101.675,204.379 101.341,202.379 100.5,200.5C 101.765,199.486 102.431,197.986 102.5,196C 102.236,162.516 102.236,129.016 102.5,95.5 Z"/></g>
<g><path style="opacity:0.391" fill="#c5a18e" d="M 271.5,111.5 C 271.169,141.671 271.502,171.671 272.5,201.5C 271.432,202.434 270.099,202.768 268.5,202.5C 269.839,172.027 270.839,141.694 271.5,111.5 Z"/></g>
<g><path style="opacity:0.161" fill="#a14e48" d="M 272.5,201.5 C 278.347,202.007 284.013,203.007 289.5,204.5C 275.192,203.588 260.858,203.255 246.5,203.5C 253.648,202.508 260.981,202.175 268.5,202.5C 270.099,202.768 271.432,202.434 272.5,201.5 Z"/></g>
<g><path style="opacity:1" fill="#ae2925" d="M 294.5,205.5 C 300.716,208.717 304.716,213.717 306.5,220.5C 305.775,224.395 305.109,228.395 304.5,232.5C 302.26,235.976 300.26,239.643 298.5,243.5C 296.926,244.631 295.259,244.798 293.5,244C 294.38,242.644 294.714,241.144 294.5,239.5C 293.167,239.5 291.833,239.5 290.5,239.5C 289.676,245.581 287.01,246.581 282.5,242.5C 281.914,242.709 281.414,243.043 281,243.5C 280.195,239.276 280.695,235.276 282.5,231.5C 282.38,229.412 281.38,228.078 279.5,227.5C 278.833,227.5 278.5,227.167 278.5,226.5C 279.573,225.749 279.74,224.749 279,223.5C 274.117,219.55 268.617,218.55 262.5,220.5C 260.907,225.489 258.24,230.322 254.5,235C 253.833,235.667 253.167,235.667 252.5,235C 253.517,233.951 253.684,232.784 253,231.5C 252.626,232.416 252.126,233.25 251.5,234C 247.879,233.595 244.213,233.595 240.5,234C 238.384,237.491 237.05,237.158 236.5,233C 239.607,223.677 243.107,214.51 247,205.5C 259.091,204.346 271.258,204.179 283.5,205C 286.832,205.249 289.999,206.082 293,207.5C 294.03,207.164 294.53,206.497 294.5,205.5 Z"/></g>
<g><path style="opacity:0.129" fill="#954346" d="M 101.5,206.5 C 101.5,206.833 101.5,207.167 101.5,207.5C 74.8313,207.333 48.1646,207.5 21.5,208C 22.7375,208.232 23.7375,208.732 24.5,209.5C 21.3908,209.345 18.3908,208.678 15.5,207.5C 44.1589,206.5 72.8256,206.167 101.5,206.5 Z"/></g>
<g><path style="opacity:0.825" fill="#851312" d="M 101.5,207.5 C 82.544,208.345 62.2107,208.845 40.5,209C 44.824,209.582 49.1573,210.082 53.5,210.5C 55.6397,210.556 57.3064,211.223 58.5,212.5C 47.1913,211.26 35.858,210.26 24.5,209.5C 23.7375,208.732 22.7375,208.232 21.5,208C 48.1646,207.5 74.8313,207.333 101.5,207.5 Z"/></g>
<g><path style="opacity:1" fill="#b02b25" d="M 145.5,220.5 C 145.611,219.883 145.944,219.383 146.5,219C 143.244,217.451 140.411,218.284 138,221.5C 137.667,222.5 137.333,223.5 137,224.5C 136.695,222.443 136.695,220.443 137,218.5C 136.667,218.833 136.333,219.167 136,219.5C 131.184,215.486 130.684,215.819 134.5,220.5C 134.333,220.833 134.167,221.167 134,221.5C 133.163,219.993 131.996,219.493 130.5,220C 132.211,221.133 132.711,222.633 132,224.5C 130.151,221.323 127.318,219.823 123.5,220C 123.957,219.586 124.291,219.086 124.5,218.5C 123.372,217.738 122.205,217.071 121,216.5C 118.446,217.776 115.779,218.776 113,219.5C 111.674,219.245 110.674,218.578 110,217.5C 107.958,219.111 105.791,220.611 103.5,222C 103.833,222.333 104.167,222.667 104.5,223C 102.744,223.202 101.078,223.702 99.5,224.5C 100.641,225.425 100.641,226.259 99.5,227C 98.5,227.5 97.5,228 96.5,228.5C 93.1112,226.849 90.4446,227.683 88.5,231C 87.552,231.483 86.552,231.649 85.5,231.5C 84.9478,229.669 84.9478,228.003 85.5,226.5C 84.6872,225.186 83.6872,224.019 82.5,223C 86.2323,223.188 89.0656,221.688 91,218.5C 91.6838,217.216 91.5171,216.049 90.5,215C 80.5438,212.411 70.5438,211.911 60.5,213.5C 59.8333,213.167 59.1667,212.833 58.5,212.5C 57.3064,211.223 55.6397,210.556 53.5,210.5C 49.1573,210.082 44.824,209.582 40.5,209C 62.2107,208.845 82.544,208.345 101.5,207.5C 101.5,207.167 101.5,206.833 101.5,206.5C 102.708,205.766 104.041,205.433 105.5,205.5C 112.325,202.642 119.492,201.308 127,201.5C 135.583,201.583 143.25,204.25 150,209.5C 154.054,215.395 152.554,219.061 145.5,220.5 Z"/></g>
<g><path style="opacity:1" fill="#ab2924" d="M 218.5,207.5 C 222.72,210.924 225.72,215.257 227.5,220.5C 228.089,227.222 227.089,233.556 224.5,239.5C 221.515,242.77 218.515,246.103 215.5,249.5C 213.025,248.323 212.025,246.323 212.5,243.5C 211.5,243.5 210.5,243.5 209.5,243.5C 209.769,245.429 209.269,247.095 208,248.5C 204.256,247.116 200.922,247.782 198,250.5C 197.333,248.5 197.333,246.5 198,244.5C 202.152,240.873 203.319,236.54 201.5,231.5C 202.06,225.057 199.06,221.723 192.5,221.5C 189.92,221.724 187.586,222.391 185.5,223.5C 183.938,223.733 182.605,224.4 181.5,225.5C 180.448,225.351 179.448,225.517 178.5,226C 174.075,230.978 171.741,236.811 171.5,243.5C 170.883,243.611 170.383,243.944 170,244.5C 169.882,242.427 168.882,241.093 167,240.5C 165.699,241.893 164.199,242.393 162.5,242C 160.383,240.267 158.883,238.1 158,235.5C 157.51,236.793 157.343,238.127 157.5,239.5C 153.579,238.93 151.412,240.597 151,244.5C 151.115,235.706 154.115,228.04 160,221.5C 160.483,220.552 160.649,219.552 160.5,218.5C 164.131,217.392 167.131,215.226 169.5,212C 175.474,209.853 181.141,207.187 186.5,204C 193.524,203.169 200.524,203.336 207.5,204.5C 211.045,206.068 214.712,207.068 218.5,207.5 Z"/></g>
<g><path style="opacity:1" fill="#a22423" d="M 60.5,213.5 C 70.5438,211.911 80.5438,212.411 90.5,215C 91.5171,216.049 91.6838,217.216 91,218.5C 89.0656,221.688 86.2323,223.188 82.5,223C 83.6872,224.019 84.6872,225.186 85.5,226.5C 84.9478,228.003 84.9478,229.669 85.5,231.5C 86.552,231.649 87.552,231.483 88.5,231C 90.4446,227.683 93.1112,226.849 96.5,228.5C 97.5,228 98.5,227.5 99.5,227C 100.641,226.259 100.641,225.425 99.5,224.5C 101.078,223.702 102.744,223.202 104.5,223C 104.167,222.667 103.833,222.333 103.5,222C 105.791,220.611 107.958,219.111 110,217.5C 110.674,218.578 111.674,219.245 113,219.5C 115.779,218.776 118.446,217.776 121,216.5C 122.205,217.071 123.372,217.738 124.5,218.5C 124.291,219.086 123.957,219.586 123.5,220C 127.318,219.823 130.151,221.323 132,224.5C 132.711,222.633 132.211,221.133 130.5,220C 131.996,219.493 133.163,219.993 134,221.5C 134.167,221.167 134.333,220.833 134.5,220.5C 130.684,215.819 131.184,215.486 136,219.5C 136.333,219.167 136.667,218.833 137,218.5C 136.695,220.443 136.695,222.443 137,224.5C 137.333,223.5 137.667,222.5 138,221.5C 140.411,218.284 143.244,217.451 146.5,219C 145.944,219.383 145.611,219.883 145.5,220.5C 145.167,221.167 144.833,221.833 144.5,222.5C 141.479,225.436 137.979,227.769 134,229.5C 131.178,227.347 128.344,225.181 125.5,223C 121.764,222.39 118.097,222.723 114.5,224C 111.669,226.001 109.003,228.167 106.5,230.5C 102.727,232.285 101.061,235.285 101.5,239.5C 99.5047,241.981 97.0047,243.981 94,245.5C 89.9267,245.663 85.0934,245.329 79.5,244.5C 79.5,241.5 79.5,238.5 79.5,235.5C 78.8166,233.824 77.4832,233.157 75.5,233.5C 72.0613,233.747 68.728,233.414 65.5,232.5C 61.6372,231.673 57.6372,230.839 53.5,230C 60.0133,229.828 66.3466,229.328 72.5,228.5C 75.1873,228.664 77.854,228.497 80.5,228C 81.8333,227.333 81.8333,226.667 80.5,226C 71.296,225.261 62.296,224.095 53.5,222.5C 50.6946,221.681 47.6946,221.181 44.5,221C 57.2074,221.151 69.5407,220.317 81.5,218.5C 84.3965,218.875 87.0632,218.375 89.5,217C 79.9302,215.043 70.2635,213.876 60.5,213.5 Z"/></g>
<g><path style="opacity:0.439" fill="#a63f3e" d="M 81.5,218.5 C 69.5407,220.317 57.2074,221.151 44.5,221C 47.6946,221.181 50.6946,221.681 53.5,222.5C 47.728,222.69 42.0613,222.023 36.5,220.5C 37.376,219.749 38.376,219.249 39.5,219C 53.5248,219.002 67.5248,218.836 81.5,218.5 Z"/></g>
<g><path style="opacity:1" fill="#ecb590" d="M 201.5,231.5 C 201.167,231.5 200.833,231.5 200.5,231.5C 200.44,230.957 200.107,230.624 199.5,230.5C 195.275,232.242 190.941,233.576 186.5,234.5C 185.577,230.936 185.244,227.269 185.5,223.5C 187.586,222.391 189.92,221.724 192.5,221.5C 199.06,221.723 202.06,225.057 201.5,231.5 Z"/></g>
<g><path style="opacity:0.098" fill="#aa575a" d="M 72.5,228.5 C 66.3466,229.328 60.0133,229.828 53.5,230C 57.6372,230.839 61.6372,231.673 65.5,232.5C 61.1539,232.666 56.8206,232.499 52.5,232C 51.376,231.751 50.376,231.251 49.5,230.5C 49.8333,230.167 50.1667,229.833 50.5,229.5C 57.776,228.535 65.1093,228.201 72.5,228.5 Z"/></g>
<g><path style="opacity:0.965" fill="#905c3f" d="M 185.5,223.5 C 185.244,227.269 185.577,230.936 186.5,234.5C 183.027,234.424 179.694,233.758 176.5,232.5C 177.984,230.081 179.651,227.748 181.5,225.5C 182.605,224.4 183.938,223.733 185.5,223.5 Z"/></g>
<g><path style="opacity:1" fill="#98241f" d="M 246.5,203.5 C 260.858,203.255 275.192,203.588 289.5,204.5C 291.216,204.629 292.883,204.962 294.5,205.5C 294.53,206.497 294.03,207.164 293,207.5C 289.999,206.082 286.832,205.249 283.5,205C 271.258,204.179 259.091,204.346 247,205.5C 243.107,214.51 239.607,223.677 236.5,233C 237.05,237.158 238.384,237.491 240.5,234C 244.213,233.595 247.879,233.595 251.5,234C 252.126,233.25 252.626,232.416 253,231.5C 253.684,232.784 253.517,233.951 252.5,235C 253.167,235.667 253.833,235.667 254.5,235C 258.24,230.322 260.907,225.489 262.5,220.5C 268.617,218.55 274.117,219.55 279,223.5C 279.74,224.749 279.573,225.749 278.5,226.5C 277.942,225.21 276.942,224.377 275.5,224C 271.459,223.173 267.459,223.34 263.5,224.5C 261.338,229.688 259.005,234.688 256.5,239.5C 255.735,240.66 254.735,241.66 253.5,242.5C 252.914,242.291 252.414,241.957 252,241.5C 250.92,244.483 249.087,245.817 246.5,245.5C 244.506,247.917 242.673,247.917 241,245.5C 238.939,246.613 237.939,247.947 238,249.5C 236.343,248.516 234.677,247.516 233,246.5C 232.764,248.119 231.931,249.119 230.5,249.5C 231.883,244.585 232.883,239.585 233.5,234.5C 235.224,228.722 237.224,223.055 239.5,217.5C 242.215,213.019 244.549,208.352 246.5,203.5 Z"/></g>
<g><path style="opacity:0.176" fill="#883c3f" d="M 306.5,220.5 C 307.392,231.279 304.725,240.946 298.5,249.5C 301.292,244.124 303.292,238.457 304.5,232.5C 305.109,228.395 305.775,224.395 306.5,220.5 Z"/></g>
<g><path style="opacity:1" fill="#96251d" d="M 185.5,201.5 C 193.664,201.114 201.998,201.614 210.5,203C 213.359,204.26 216.026,205.76 218.5,207.5C 214.712,207.068 211.045,206.068 207.5,204.5C 200.524,203.336 193.524,203.169 186.5,204C 181.141,207.187 175.474,209.853 169.5,212C 167.131,215.226 164.131,217.392 160.5,218.5C 160.649,219.552 160.483,220.552 160,221.5C 154.115,228.04 151.115,235.706 151,244.5C 151.412,240.597 153.579,238.93 157.5,239.5C 157.343,238.127 157.51,236.793 158,235.5C 158.883,238.1 160.383,240.267 162.5,242C 164.199,242.393 165.699,241.893 167,240.5C 168.882,241.093 169.882,242.427 170,244.5C 170.383,243.944 170.883,243.611 171.5,243.5C 171.665,246.518 171.498,249.518 171,252.5C 170.581,251.328 169.915,250.328 169,249.5C 167.899,253.6 165.899,254.267 163,251.5C 160.516,254.259 159.35,253.926 159.5,250.5C 157.61,250.703 156.11,250.037 155,248.5C 153.415,249.376 152.415,250.709 152,252.5C 151.392,250.934 150.558,249.6 149.5,248.5C 149.413,243.463 149.746,238.463 150.5,233.5C 151.5,230.167 152.5,226.833 153.5,223.5C 162.494,213.675 173.16,206.342 185.5,201.5 Z"/></g>
<g><path style="opacity:0.231" fill="#8c3c3e" d="M 75.5,233.5 C 77.4832,233.157 78.8166,233.824 79.5,235.5C 78.71,236.609 78.21,237.942 78,239.5C 77.5006,244.823 77.334,250.156 77.5,255.5C 75.5308,249.38 75.5308,243.046 77.5,236.5C 77.0576,235.261 76.3909,234.261 75.5,233.5 Z"/></g>
<g><path style="opacity:0.114" fill="#924c4d" d="M 106.5,230.5 C 103.765,235.497 102.932,240.831 104,246.5C 106.697,249.87 110.197,251.204 114.5,250.5C 105.77,252.456 101.436,248.789 101.5,239.5C 101.061,235.285 102.727,232.285 106.5,230.5 Z"/></g>
<g><path style="opacity:1" fill="#801916" d="M 279.5,227.5 C 281.38,228.078 282.38,229.412 282.5,231.5C 280.695,235.276 280.195,239.276 281,243.5C 281.414,243.043 281.914,242.709 282.5,242.5C 287.01,246.581 289.676,245.581 290.5,239.5C 291.833,239.5 293.167,239.5 294.5,239.5C 294.714,241.144 294.38,242.644 293.5,244C 295.259,244.798 296.926,244.631 298.5,243.5C 300.26,239.643 302.26,235.976 304.5,232.5C 303.292,238.457 301.292,244.124 298.5,249.5C 298.672,250.492 298.338,251.158 297.5,251.5C 294.6,250.046 293.267,251.046 293.5,254.5C 292.167,254.5 290.833,254.5 289.5,254.5C 289.5,255.5 289.5,256.5 289.5,257.5C 288.5,257.5 287.5,257.5 286.5,257.5C 285.769,255.111 284.102,253.777 281.5,253.5C 279.956,253.79 278.623,254.456 277.5,255.5C 275.677,254.253 273.677,253.586 271.5,253.5C 271.5,254.833 271.5,256.167 271.5,257.5C 268.223,257.784 265.057,257.451 262,256.5C 261.101,258.368 259.601,259.368 257.5,259.5C 251.336,257.268 245.002,256.934 238.5,258.5C 234.264,255.514 231.597,256.68 230.5,262C 231.888,262.889 231.722,263.389 230,263.5C 228.365,263.122 226.865,262.456 225.5,261.5C 227.261,257.063 228.428,252.397 229,247.5C 229.278,248.416 229.778,249.082 230.5,249.5C 231.931,249.119 232.764,248.119 233,246.5C 234.677,247.516 236.343,248.516 238,249.5C 237.939,247.947 238.939,246.613 241,245.5C 242.673,247.917 244.506,247.917 246.5,245.5C 249.087,245.817 250.92,244.483 252,241.5C 252.414,241.957 252.914,242.291 253.5,242.5C 254.735,241.66 255.735,240.66 256.5,239.5C 256.002,242.829 255.002,245.995 253.5,249C 270.292,251.457 278.959,244.291 279.5,227.5 Z"/></g>
<g><path style="opacity:1" fill="#7a1613" d="M 79.5,235.5 C 79.5,238.5 79.5,241.5 79.5,244.5C 85.0934,245.329 89.9267,245.663 94,245.5C 97.0047,243.981 99.5047,241.981 101.5,239.5C 101.436,248.789 105.77,252.456 114.5,250.5C 119.355,248.823 123.855,246.489 128,243.5C 130.73,244.728 132.564,246.728 133.5,249.5C 133.34,251.199 133.506,252.866 134,254.5C 135.487,255.155 136.653,256.155 137.5,257.5C 134.417,260.908 130.751,263.575 126.5,265.5C 125.914,265.291 125.414,264.957 125,264.5C 121.1,266.624 116.934,267.957 112.5,268.5C 111.614,267.675 111.281,266.675 111.5,265.5C 103.493,265.666 95.4931,265.5 87.5,265C 83.3199,263.014 80.9866,259.847 80.5,255.5C 79.5,255.5 78.5,255.5 77.5,255.5C 77.334,250.156 77.5006,244.823 78,239.5C 78.21,237.942 78.71,236.609 79.5,235.5 Z"/></g>
<g><path style="opacity:1" fill="#791715" d="M 181.5,225.5 C 179.651,227.748 177.984,230.081 176.5,232.5C 170.51,248.344 175.51,253.51 191.5,248C 197.004,243.823 200.004,238.323 200.5,231.5C 200.833,231.5 201.167,231.5 201.5,231.5C 203.319,236.54 202.152,240.873 198,244.5C 197.333,246.5 197.333,248.5 198,250.5C 200.922,247.782 204.256,247.116 208,248.5C 209.269,247.095 209.769,245.429 209.5,243.5C 210.5,243.5 211.5,243.5 212.5,243.5C 212.025,246.323 213.025,248.323 215.5,249.5C 218.515,246.103 221.515,242.77 224.5,239.5C 222.272,247.984 217.605,254.651 210.5,259.5C 210.44,258.957 210.107,258.624 209.5,258.5C 206.713,260.227 203.713,261.394 200.5,262C 200.833,262.333 201.167,262.667 201.5,263C 200.328,263.419 199.328,264.085 198.5,265C 193.095,265.413 187.929,266.579 183,268.5C 179.656,267.253 176.49,265.587 173.5,263.5C 171.229,264.271 169.062,265.271 167,266.5C 164.815,266.079 162.649,265.579 160.5,265C 163.234,264.002 164.901,262.168 165.5,259.5C 163.173,259.335 161.007,258.669 159,257.5C 157.256,258.649 157.089,259.983 158.5,261.5C 157.998,262.521 157.332,262.688 156.5,262C 155.388,259.222 153.555,257.055 151,255.5C 150.338,253.187 149.838,250.854 149.5,248.5C 150.558,249.6 151.392,250.934 152,252.5C 152.415,250.709 153.415,249.376 155,248.5C 156.11,250.037 157.61,250.703 159.5,250.5C 159.35,253.926 160.516,254.259 163,251.5C 165.899,254.267 167.899,253.6 169,249.5C 169.915,250.328 170.581,251.328 171,252.5C 171.498,249.518 171.665,246.518 171.5,243.5C 171.741,236.811 174.075,230.978 178.5,226C 179.448,225.517 180.448,225.351 181.5,225.5 Z"/></g>
<g><path style="opacity:1" fill="#711311" d="M 233.5,234.5 C 232.883,239.585 231.883,244.585 230.5,249.5C 229.778,249.082 229.278,248.416 229,247.5C 228.428,252.397 227.261,257.063 225.5,261.5C 226.865,262.456 228.365,263.122 230,263.5C 231.722,263.389 231.888,262.889 230.5,262C 231.597,256.68 234.264,255.514 238.5,258.5C 245.002,256.934 251.336,257.268 257.5,259.5C 259.601,259.368 261.101,258.368 262,256.5C 265.057,257.451 268.223,257.784 271.5,257.5C 271.5,256.167 271.5,254.833 271.5,253.5C 273.677,253.586 275.677,254.253 277.5,255.5C 278.623,254.456 279.956,253.79 281.5,253.5C 284.102,253.777 285.769,255.111 286.5,257.5C 286.5,258.5 286.5,259.5 286.5,260.5C 285.167,260.5 283.833,260.5 282.5,260.5C 282.719,261.675 282.386,262.675 281.5,263.5C 277.126,263.832 273.126,265.166 269.5,267.5C 268.284,266.998 267.117,266.665 266,266.5C 251.909,267.728 237.742,268.228 223.5,268C 222.901,266.378 222.234,264.878 221.5,263.5C 225.128,253.6 229.128,243.934 233.5,234.5 Z"/></g>
<g><path style="opacity:1" fill="#681413" d="M 150.5,233.5 C 149.746,238.463 149.413,243.463 149.5,248.5C 149.838,250.854 150.338,253.187 151,255.5C 153.555,257.055 155.388,259.222 156.5,262C 157.332,262.688 157.998,262.521 158.5,261.5C 157.089,259.983 157.256,258.649 159,257.5C 161.007,258.669 163.173,259.335 165.5,259.5C 164.901,262.168 163.234,264.002 160.5,265C 162.649,265.579 164.815,266.079 167,266.5C 169.062,265.271 171.229,264.271 173.5,263.5C 176.49,265.587 179.656,267.253 183,268.5C 187.929,266.579 193.095,265.413 198.5,265C 199.328,264.085 200.328,263.419 201.5,263C 201.167,262.667 200.833,262.333 200.5,262C 203.713,261.394 206.713,260.227 209.5,258.5C 210.107,258.624 210.44,258.957 210.5,259.5C 196.507,271.45 180.507,274.95 162.5,270C 149.536,263.9 144.703,253.733 148,239.5C 148.566,237.277 149.4,235.277 150.5,233.5 Z"/></g>
<g><path style="opacity:1" fill="#601515" d="M 133.5,249.5 C 137.2,251.907 139.034,255.24 139,259.5C 122.826,273.445 104.993,275.945 85.5,267C 81.4179,264.095 78.7513,260.262 77.5,255.5C 78.5,255.5 79.5,255.5 80.5,255.5C 80.9866,259.847 83.3199,263.014 87.5,265C 95.4931,265.5 103.493,265.666 111.5,265.5C 111.281,266.675 111.614,267.675 112.5,268.5C 116.934,267.957 121.1,266.624 125,264.5C 125.414,264.957 125.914,265.291 126.5,265.5C 130.751,263.575 134.417,260.908 137.5,257.5C 136.653,256.155 135.487,255.155 134,254.5C 133.506,252.866 133.34,251.199 133.5,249.5 Z"/></g>
<g><path style="opacity:1" fill="#61191b" d="M 297.5,251.5 C 290.731,260.058 282.065,265.892 271.5,269C 254.548,270.427 237.548,270.927 220.5,270.5C 220.674,268.139 221.007,265.806 221.5,263.5C 222.234,264.878 222.901,266.378 223.5,268C 237.742,268.228 251.909,267.728 266,266.5C 267.117,266.665 268.284,266.998 269.5,267.5C 273.126,265.166 277.126,263.832 281.5,263.5C 282.386,262.675 282.719,261.675 282.5,260.5C 283.833,260.5 285.167,260.5 286.5,260.5C 286.5,259.5 286.5,258.5 286.5,257.5C 287.5,257.5 288.5,257.5 289.5,257.5C 289.5,256.5 289.5,255.5 289.5,254.5C 290.833,254.5 292.167,254.5 293.5,254.5C 293.267,251.046 294.6,250.046 297.5,251.5 Z"/></g>
<g><path style="opacity:0.047" fill="#7a4c55" d="M 248.5,280.5 C 247.5,280.5 246.5,280.5 245.5,280.5C 245.473,282.199 244.806,283.533 243.5,284.5C 242.32,287.54 240.653,290.206 238.5,292.5C 239.881,288.736 241.547,285.069 243.5,281.5C 243.043,280.702 242.376,280.369 241.5,280.5C 241.503,274.934 243.503,273.767 247.5,277C 247.043,277.414 246.709,277.914 246.5,278.5C 247.243,279.182 247.909,279.849 248.5,280.5 Z"/></g>
<g><path style="opacity:0.071" fill="#764b4d" d="M 236.5,275.5 C 238.176,274.29 239.51,274.79 240.5,277C 237.107,282.287 234.107,287.787 231.5,293.5C 230.957,293.44 230.624,293.107 230.5,292.5C 233.167,287.167 235.833,281.833 238.5,276.5C 238.043,275.702 237.376,275.369 236.5,275.5 Z"/></g>
<g><path style="opacity:0.075" fill="#73444a" d="M 271.5,281.5 C 265.31,280.268 260.643,282.268 257.5,287.5C 254.723,288.696 252.056,290.863 249.5,294C 247.934,294.765 246.601,294.598 245.5,293.5C 246.552,293.649 247.552,293.483 248.5,293C 252,289.5 255.5,286 259,282.5C 259.667,281.833 259.667,281.167 259,280.5C 257,282.5 255,284.5 253,286.5C 252.601,286.272 252.435,285.938 252.5,285.5C 254.182,282.985 256.348,280.985 259,279.5C 260.261,279.759 261.261,280.426 262,281.5C 265.28,278.86 268.447,278.86 271.5,281.5 Z"/></g>
<g><path style="opacity:0.024" fill="#794d4f" d="M 111.5,280.5 C 111.735,279.903 112.235,279.57 113,279.5C 114.174,280.544 115.341,281.544 116.5,282.5C 116.573,284.027 115.906,285.027 114.5,285.5C 114.062,284.494 113.396,284.494 112.5,285.5C 112.421,284.07 112.754,282.736 113.5,281.5C 113.043,280.702 112.376,280.369 111.5,280.5 Z"/></g>
<g><path style="opacity:0.165" fill="#6a3b41" d="M 128.5,283.5 C 125.921,284.228 123.254,284.728 120.5,285C 121.416,285.278 122.082,285.778 122.5,286.5C 117.422,286.663 116.755,285.496 120.5,283C 122.657,282.922 124.657,282.755 126.5,282.5C 123.163,281.334 119.83,281.334 116.5,282.5C 119.255,279.482 122.589,278.815 126.5,280.5C 127.425,281.357 128.092,282.357 128.5,283.5 Z"/></g>
<g><path style="opacity:0.855" fill="#4e2024" d="M 125.5,293.5 C 126.028,292.279 126.695,291.113 127.5,290C 127.272,289.601 126.938,289.435 126.5,289.5C 127.63,287.685 128.296,285.685 128.5,283.5C 130.515,281.324 132.182,278.824 133.5,276C 134.793,275.51 136.127,275.343 137.5,275.5C 137.5,276.833 137.5,278.167 137.5,279.5C 140.877,279.339 142.877,280.839 143.5,284C 142.633,288.244 140.633,291.744 137.5,294.5C 136.833,294.167 136.167,293.833 135.5,293.5C 136.008,290.491 137.008,287.491 138.5,284.5C 136.712,284.215 135.045,284.548 133.5,285.5C 131.737,288.305 130.07,291.138 128.5,294C 127.251,294.74 126.251,294.573 125.5,293.5 Z"/></g>
<g><path style="opacity:0.857" fill="#401118" d="M 241.5,280.5 C 242.376,280.369 243.043,280.702 243.5,281.5C 241.547,285.069 239.881,288.736 238.5,292.5C 237.64,294.97 236.306,295.137 234.5,293C 236.734,288.69 239.068,284.524 241.5,280.5 Z"/></g>
<g><path style="opacity:0.757" fill="#4a1d22" d="M 159.5,279.5 C 165.05,279.215 167.883,281.882 168,287.5C 169.386,284.466 171.219,281.8 173.5,279.5C 176.536,279.196 179.536,279.696 182.5,281C 183.574,281.739 184.241,282.739 184.5,284C 183.399,287.649 181.732,290.982 179.5,294C 178.552,294.483 177.552,294.649 176.5,294.5C 176.949,290.952 177.949,287.619 179.5,284.5C 177.801,284.34 176.134,284.506 174.5,285C 172.873,287.754 171.373,290.588 170,293.5C 168.989,294.337 167.822,294.67 166.5,294.5C 166.657,293.127 166.49,291.793 166,290.5C 161.522,294.935 156.522,295.602 151,292.5C 150.465,285.91 153.298,281.576 159.5,279.5 Z M 157.5,284.5 C 159.167,284.5 160.833,284.5 162.5,284.5C 162.054,287.458 160.554,289.792 158,291.5C 154.88,289.533 154.713,287.199 157.5,284.5 Z"/></g>
<g><path style="opacity:0.765" fill="#3b080e" d="M 122.5,286.5 C 125.216,288.964 124.882,291.13 121.5,293C 118.446,293.821 115.446,293.655 112.5,292.5C 114.781,291.815 117.114,291.649 119.5,292C 120.973,291.29 121.64,290.124 121.5,288.5C 120.167,288.5 118.833,288.5 117.5,288.5C 115.5,288.5 114.5,287.5 114.5,285.5C 115.906,285.027 116.573,284.027 116.5,282.5C 119.83,281.334 123.163,281.334 126.5,282.5C 124.657,282.755 122.657,282.922 120.5,283C 116.755,285.496 117.422,286.663 122.5,286.5 Z"/></g>
<g><path style="opacity:0.916" fill="#3e0e16" d="M 236.5,275.5 C 237.376,275.369 238.043,275.702 238.5,276.5C 235.833,281.833 233.167,287.167 230.5,292.5C 230.624,293.107 230.957,293.44 231.5,293.5C 230.292,294.782 228.958,294.782 227.5,293.5C 228.309,291.929 228.643,290.262 228.5,288.5C 231.167,284.167 233.833,279.833 236.5,275.5 Z"/></g>
<g><path style="opacity:0.914" fill="#47141b" d="M 248.5,280.5 C 249.302,281.952 249.802,283.618 250,285.5C 250.77,286.598 251.603,286.598 252.5,285.5C 252.435,285.938 252.601,286.272 253,286.5C 255,284.5 257,282.5 259,280.5C 259.667,281.167 259.667,281.833 259,282.5C 255.5,286 252,289.5 248.5,293C 247.552,293.483 246.552,293.649 245.5,293.5C 246.055,289.988 245.388,286.988 243.5,284.5C 244.806,283.533 245.473,282.199 245.5,280.5C 246.5,280.5 247.5,280.5 248.5,280.5 Z"/></g>
<g><path style="opacity:0.035" fill="#7f474b" d="M 122.5,286.5 C 124.43,286.771 125.764,287.771 126.5,289.5C 126.938,289.435 127.272,289.601 127.5,290C 126.695,291.113 126.028,292.279 125.5,293.5C 124.883,293.389 124.383,293.056 124,292.5C 119.333,296.5 114.667,296.5 110,292.5C 109.617,293.056 109.117,293.389 108.5,293.5C 108.992,291.181 109.992,289.181 111.5,287.5C 111.351,288.552 111.517,289.552 112,290.5C 114.042,290.182 116.209,290.015 118.5,290C 117.944,289.617 117.611,289.117 117.5,288.5C 118.833,288.5 120.167,288.5 121.5,288.5C 121.64,290.124 120.973,291.29 119.5,292C 117.114,291.649 114.781,291.815 112.5,292.5C 115.446,293.655 118.446,293.821 121.5,293C 124.882,291.13 125.216,288.964 122.5,286.5 Z"/></g>
<g><path style="opacity:0.91" fill="#4f1a20" d="M 228.5,288.5 C 227.234,289.09 225.901,289.59 224.5,290C 225.925,291.714 225.592,293.047 223.5,294C 220.5,294.667 217.5,294.667 214.5,294C 212.996,292.509 212.163,290.676 212,288.5C 210.549,290.464 208.716,291.797 206.5,292.5C 199.894,293.245 199.894,292.411 206.5,290C 208.141,288.871 209.141,287.371 209.5,285.5C 209.5,283.833 209.5,282.167 209.5,280.5C 209.389,279.883 209.056,279.383 208.5,279C 205.773,278.182 203.106,278.348 200.5,279.5C 194.126,292.61 193.459,292.277 198.5,278.5C 198.577,277.25 199.244,276.417 200.5,276C 208.049,273.688 212.883,276.188 215,283.5C 218.901,279.603 223.234,278.937 228,281.5C 228.497,283.81 228.663,286.143 228.5,288.5 Z M 217.5,290.5 C 218.601,289.402 219.934,289.235 221.5,290C 220.318,291.768 218.985,291.935 217.5,290.5 Z"/></g>
<g><path style="opacity:0.569" fill="#874e51" d="M 220.5,282.5 C 223.95,281.756 225.616,283.09 225.5,286.5C 222.753,286.813 220.086,286.48 217.5,285.5C 218.34,284.265 219.34,283.265 220.5,282.5 Z"/></g>
<g><path style="opacity:0.882" fill="#44141b" d="M 89.5,275.5 C 93.6312,274.715 96.9645,275.881 99.5,279C 99.3699,280.059 98.8699,280.892 98,281.5C 91.9304,278.308 86.7637,279.474 82.5,285C 82.493,286.583 82.8263,288.249 83.5,290C 86.7836,291.467 89.7836,291.301 92.5,289.5C 93.8304,291.347 93.497,292.847 91.5,294C 88.1667,294.667 84.8333,294.667 81.5,294C 78.7132,291.833 77.8799,288.999 79,285.5C 81.1059,280.557 84.6059,277.224 89.5,275.5 Z"/></g>
<g><path style="opacity:0.647" fill="#481419" d="M 111.5,280.5 C 112.376,280.369 113.043,280.702 113.5,281.5C 112.754,282.736 112.421,284.07 112.5,285.5C 112.672,286.492 112.338,287.158 111.5,287.5C 109.992,289.181 108.992,291.181 108.5,293.5C 105.36,294.641 102.027,294.808 98.5,294C 95.2119,291.232 95.0452,288.066 98,284.5C 101.492,279.725 105.992,278.391 111.5,280.5 Z M 101.5,284.5 C 103.833,284.5 106.167,284.5 108.5,284.5C 107.685,289.429 104.685,291.762 99.5,291.5C 99.3939,288.921 100.061,286.588 101.5,284.5 Z"/></g>
<g><path style="opacity:0.908" fill="#5e2e32" d="M 198.5,278.5 C 193.459,292.277 194.126,292.61 200.5,279.5C 203.106,278.348 205.773,278.182 208.5,279C 209.056,279.383 209.389,279.883 209.5,280.5C 206.813,280.336 204.146,280.503 201.5,281C 199.903,283.527 198.57,286.194 197.5,289C 198.009,290.169 198.842,291.002 200,291.5C 203.753,290.376 206.92,288.376 209.5,285.5C 209.141,287.371 208.141,288.871 206.5,290C 199.894,292.411 199.894,293.245 206.5,292.5C 206.389,293.117 206.056,293.617 205.5,294C 200.581,294.802 195.748,294.635 191,293.5C 192.439,288.044 194.939,283.044 198.5,278.5 Z"/></g>
<g><path style="opacity:0.894" fill="#4e191e" d="M 271.5,281.5 C 272.391,282.261 273.058,283.261 273.5,284.5C 271.825,287.668 270.159,290.834 268.5,294C 265.167,294.667 261.833,294.667 258.5,294C 257.577,291.959 257.244,289.792 257.5,287.5C 260.643,282.268 265.31,280.268 271.5,281.5 Z M 262.5,289.5 C 267.021,289.326 267.355,289.993 263.5,291.5C 262.702,291.043 262.369,290.376 262.5,289.5 Z"/></g>
<g><path style="opacity:0.878" fill="#381418" d="M 278.5,279.5 C 281.949,279.476 285.282,279.643 288.5,280C 289.635,282.35 290.469,284.85 291,287.5C 293.285,285.093 295.451,282.593 297.5,280C 298.448,279.517 299.448,279.351 300.5,279.5C 300.657,280.873 300.49,282.207 300,283.5C 294.228,289.45 288.061,294.783 281.5,299.5C 280.069,299.023 278.736,298.357 277.5,297.5C 278.289,295.512 279.455,295.179 281,296.5C 282.333,295.833 283.667,295.167 285,294.5C 285.499,290.848 285.665,287.182 285.5,283.5C 284.127,283.343 282.793,283.51 281.5,284C 278.872,286.754 276.872,289.921 275.5,293.5C 273.983,294.911 272.649,294.744 271.5,293C 273.931,288.532 276.264,284.032 278.5,279.5 Z"/></g>
</svg>
