<svg xmlns="http://www.w3.org/2000/svg" viewBox="0 0 720.18 119.77"><defs><style>.cls-1{fill:#132e34;}</style></defs><g id="Layer_2" data-name="Layer 2"><g id="Layer_1-2" data-name="Layer 1"><path class="cls-1" d="M178.47,119.77c-33.52,0-59.16-24.36-59.16-59.88S145,0,178.47,0c33.69,0,59.33,24.36,59.33,59.89S212.16,119.77,178.47,119.77Zm0-95.41c-18.69,0-30.59,14.1-30.59,35.53s11.9,35.52,30.59,35.52c18.86,0,30.76-14.1,30.76-35.52S197.33,24.36,178.47,24.36Z"/><path class="cls-1" d="M325.34,117.57,290,69.78l-10.8,11.53v36.26H251.35V2.2h27.84V51.09L323.69,2.2h32.05l-45.6,49.44,48.53,65.93Z"/><path class="cls-1" d="M413.8,119.77c-33.52,0-59.16-24.36-59.16-59.88S380.28,0,413.8,0c33.69,0,59.33,24.36,59.33,59.89S447.49,119.77,413.8,119.77Zm0-95.41c-18.69,0-30.59,14.1-30.59,35.53s11.9,35.52,30.59,35.52c18.86,0,30.76-14.1,30.76-35.52S432.66,24.36,413.8,24.36Z"/><path class="cls-1" d="M486.68,2.2h44.69c37.91,0,61.35,21.61,61.35,57.69s-23.44,57.68-61.35,57.68H486.68Zm42.86,93.4C551.33,95.6,564,82.41,564,59.7c0-22.34-12.64-35.53-34.43-35.53h-15V95.6Z"/><path class="cls-1" d="M660.84,119.77c-33.51,0-59.15-24.36-59.15-59.88S627.33,0,660.84,0c33.7,0,59.34,24.36,59.34,59.89S694.54,119.77,660.84,119.77Zm0-95.41c-18.68,0-30.58,14.1-30.58,35.53s11.9,35.52,30.58,35.52c18.86,0,30.77-14.1,30.77-35.52S679.7,24.36,660.84,24.36Z"/><polygon class="cls-1" points="76.92 2.2 76.92 45.46 38.46 45.46 38.46 74.31 76.92 74.31 76.92 117.57 105.76 117.57 105.76 2.2 76.92 2.2"/><polygon class="cls-1" points="0 117.57 28.84 117.57 28.84 74.31 19.23 74.31 19.23 45.46 28.84 45.46 28.84 2.2 0 2.2 0 117.57"/></g></g></svg>