<?xml version="1.0" encoding="UTF-8"?>
<!DOCTYPE svg PUBLIC "-//W3C//DTD SVG 1.1//EN" "http://www.w3.org/Graphics/SVG/1.1/DTD/svg11.dtd">
<svg xmlns="http://www.w3.org/2000/svg" version="1.1" width="728px" height="144px" style="shape-rendering:geometricPrecision; text-rendering:geometricPrecision; image-rendering:optimizeQuality; fill-rule:evenodd; clip-rule:evenodd" xmlns:xlink="http://www.w3.org/1999/xlink">
<g><path style="opacity:0.915" fill="#fd6f8c" d="M 20.5,-0.5 C 25.5,-0.5 30.5,-0.5 35.5,-0.5C 64.0641,15.1197 92.3974,31.2864 120.5,48C 131.356,57.2952 134.522,68.7952 130,82.5C 127.646,87.8581 124.146,92.3581 119.5,96C 91.5357,112.142 63.5357,127.975 35.5,143.5C 30.5,143.5 25.5,143.5 20.5,143.5C 10.5,139.5 3.5,132.5 -0.5,122.5C -0.5,88.5 -0.5,54.5 -0.5,20.5C 3.5,10.5 10.5,3.5 20.5,-0.5 Z M 22.5,8.5 C 26.5138,8.33449 30.5138,8.50115 34.5,9C 54.5,20.3333 74.5,31.6667 94.5,43C 91.2577,44.6395 87.9243,45.6395 84.5,46C 67.4934,35.4947 50.1601,25.4947 32.5,16C 18.0891,15.4085 13.2558,21.9085 18,35.5C 31.1029,44.4279 44.6029,52.7612 58.5,60.5C 58.8333,60.8333 59.1667,61.1667 59.5,61.5C 57.3637,64.0723 54.697,65.239 51.5,65C 37.7463,57.7102 24.5796,49.5436 12,40.5C 4.43505,26.1309 7.93505,15.4642 22.5,8.5 Z M 27.5,24.5 C 44.0591,33.1167 60.3924,42.2834 76.5,52C 74.3333,53.5 72.1667,55 70,56.5C 55.915,48.207 41.7483,40.0403 27.5,32C 24.8803,29.4405 24.8803,26.9405 27.5,24.5 Z M 8.5,50.5 C 10.4714,51.8231 12.4714,53.1565 14.5,54.5C 15.3331,75.8255 15.8331,97.1589 16,118.5C 22.3626,129.104 30.0293,130.104 39,121.5C 39.9734,119.608 40.6401,117.608 41,115.5C 41.1672,100.489 41.6672,85.4889 42.5,70.5C 44.0009,71.7515 45.6675,72.7515 47.5,73.5C 48.6662,88.8225 48.8329,104.156 48,119.5C 41.6869,134.395 31.1869,138.229 16.5,131C 12.619,128.072 10.119,124.239 9,119.5C 8.50004,96.5024 8.33337,73.5024 8.5,50.5 Z M 57.5,120.5 C 57.1866,117.753 57.52,115.086 58.5,112.5C 75.3707,102.467 92.3707,92.6336 109.5,83C 117.49,75.6243 117.49,68.291 109.5,61C 104.013,58.8152 98.6799,59.1485 93.5,62C 81.8333,68.8333 70.1667,75.6667 58.5,82.5C 57.3483,79.8938 57.1816,77.2272 58,74.5C 70.0844,67.2073 82.251,60.0406 94.5,53C 107.317,49.1587 116.483,53.3254 122,65.5C 124.511,76.3132 121.011,84.4798 111.5,90C 93.6348,100.432 75.6348,110.599 57.5,120.5 Z M 24.5,60.5 C 26.4734,61.4867 28.4734,62.4867 30.5,63.5C 31.6663,81.1572 31.833,98.8239 31,116.5C 29,117.833 27,117.833 25,116.5C 24.5001,97.8363 24.3334,79.1696 24.5,60.5 Z M 100.5,68.5 C 105.651,68.6536 106.984,70.8202 104.5,75C 89.0034,83.5806 73.67,92.414 58.5,101.5C 57.2175,98.6281 57.2175,95.7947 58.5,93C 72.727,85.0591 86.727,76.8924 100.5,68.5 Z"/></g>
<g><path style="opacity:0.931" fill="#003a51" d="M 692.5,14.5 C 709.772,13.9556 720.606,21.9556 725,38.5C 725.504,62.6618 713.67,73.8285 689.5,72C 673.379,67.2019 665.879,56.3686 667,39.5C 670.131,25.534 678.631,17.2007 692.5,14.5 Z M 691.5,20.5 C 708.093,19.432 717.426,27.0987 719.5,43.5C 717.93,57.5703 710.097,65.5703 696,67.5C 676.765,63.6934 669.765,52.3601 675,33.5C 678.772,26.8765 684.272,22.5432 691.5,20.5 Z M 691.5,34.5 C 694.518,34.3354 697.518,34.502 700.5,35C 703.371,37.8402 703.037,40.1735 699.5,42C 696.854,42.4974 694.187,42.6641 691.5,42.5C 691.5,39.8333 691.5,37.1667 691.5,34.5 Z"/></g>
<g><path style="opacity:0.976" fill="#003951" d="M 174.5,22.5 C 191.215,22.075 207.882,22.575 224.5,24C 242.378,30.2223 249.878,42.7223 247,61.5C 242.985,74.1811 234.485,82.0145 221.5,85C 212.84,85.4998 204.173,85.6664 195.5,85.5C 195.5,95.5 195.5,105.5 195.5,115.5C 188.5,115.5 181.5,115.5 174.5,115.5C 174.5,84.5 174.5,53.5 174.5,22.5 Z M 195.5,41.5 C 203.917,41.0943 212.251,41.5943 220.5,43C 229.976,51.5657 229.309,59.2323 218.5,66C 210.841,66.4997 203.174,66.6664 195.5,66.5C 195.5,58.1667 195.5,49.8333 195.5,41.5 Z"/></g>
<g><path style="opacity:0.976" fill="#003951" d="M 446.5,22.5 C 462.882,22.0767 479.215,22.5767 495.5,24C 513.923,30.3342 521.423,43.1675 518,62.5C 514.206,75.2921 505.706,82.7921 492.5,85C 483.84,85.4998 475.173,85.6664 466.5,85.5C 466.5,95.5 466.5,105.5 466.5,115.5C 459.833,115.5 453.167,115.5 446.5,115.5C 446.5,84.5 446.5,53.5 446.5,22.5 Z M 466.5,41.5 C 474.174,41.3336 481.841,41.5003 489.5,42C 498.066,46.3648 500.233,52.8648 496,61.5C 494.269,63.6166 492.102,65.1166 489.5,66C 481.841,66.4997 474.174,66.6664 466.5,66.5C 466.5,58.1667 466.5,49.8333 466.5,41.5 Z"/></g>
<g><path style="opacity:0.863" fill="#003951" d="M 685.5,28.5 C 690.511,28.3341 695.511,28.5007 700.5,29C 706.487,31.1401 708.654,35.3068 707,41.5C 705.878,43.6238 704.378,45.4571 702.5,47C 704.833,50.6667 707.167,54.3333 709.5,58C 707.098,58.8141 704.765,58.6474 702.5,57.5C 701.087,54.3388 699.42,51.3388 697.5,48.5C 695.604,47.5344 693.604,47.2011 691.5,47.5C 691.5,51.1667 691.5,54.8333 691.5,58.5C 689.5,58.5 687.5,58.5 685.5,58.5C 685.5,48.5 685.5,38.5 685.5,28.5 Z M 691.5,34.5 C 691.5,37.1667 691.5,39.8333 691.5,42.5C 694.187,42.6641 696.854,42.4974 699.5,42C 703.037,40.1735 703.371,37.8402 700.5,35C 697.518,34.502 694.518,34.3354 691.5,34.5 Z"/></g>
<g><path style="opacity:0.965" fill="#003951" d="M 396.5,31.5 C 402.167,31.5 407.833,31.5 413.5,31.5C 413.5,38.1667 413.5,44.8333 413.5,51.5C 417.833,51.5 422.167,51.5 426.5,51.5C 426.5,57.1667 426.5,62.8333 426.5,68.5C 422.167,68.5 417.833,68.5 413.5,68.5C 413.334,77.8393 413.5,87.1726 414,96.5C 417.771,100.547 422.271,101.547 427.5,99.5C 427.828,104.875 427.495,110.208 426.5,115.5C 416.267,119.238 407.1,117.572 399,110.5C 396.816,107.134 395.483,103.467 395,99.5C 394.5,89.172 394.334,78.8387 394.5,68.5C 390.833,68.5 387.167,68.5 383.5,68.5C 383.5,62.8333 383.5,57.1667 383.5,51.5C 387.584,51.9569 391.417,51.2902 395,49.5C 396.41,43.6208 396.91,37.6208 396.5,31.5 Z"/></g>
<g><path style="opacity:0.974" fill="#003951" d="M 276.5,49.5 C 289.885,47.1228 300.719,51.1228 309,61.5C 310.197,64.0891 311.197,66.7558 312,69.5C 312.5,84.8297 312.667,100.163 312.5,115.5C 306.167,115.5 299.833,115.5 293.5,115.5C 294.188,110.758 293.188,109.925 290.5,113C 278.171,119.897 267.004,118.397 257,108.5C 250.87,92.5936 256.037,82.4269 272.5,78C 279.478,76.6374 286.478,75.4707 293.5,74.5C 292.628,68.6224 289.128,65.6224 283,65.5C 277.303,66.099 272.469,68.4323 268.5,72.5C 265.182,69.6828 262.015,66.6828 259,63.5C 259.088,60.3578 260.588,57.8578 263.5,56C 267.657,53.2548 271.99,51.0881 276.5,49.5 Z M 290.5,86.5 C 291.5,86.5 292.5,86.5 293.5,86.5C 294.482,95.896 290.316,100.896 281,101.5C 273.597,101.408 271.43,98.0749 274.5,91.5C 279.675,89.073 285.009,87.4063 290.5,86.5 Z"/></g>
<g><path style="opacity:0.974" fill="#003a51" d="M 343.5,49.5 C 351.832,48.684 359.832,49.8507 367.5,53C 370.311,54.6437 372.644,56.8103 374.5,59.5C 371.333,63.1667 368.167,66.8333 365,70.5C 360.772,65.9131 355.606,64.4131 349.5,66C 346.014,67.9472 345.681,70.2805 348.5,73C 355.698,75.6188 362.698,78.6188 369.5,82C 376.948,88.9867 378.448,97.1534 374,106.5C 364.898,116.463 353.731,119.63 340.5,116C 333.292,114.572 327.625,110.905 323.5,105C 327,101.5 330.5,98 334,94.5C 340.066,101.992 347.066,103.326 355,98.5C 355.92,95.6917 355.087,93.5251 352.5,92C 346.421,89.8628 340.421,87.5294 334.5,85C 326.944,80.1518 324.444,73.3184 327,64.5C 330.567,57.3116 336.067,52.3116 343.5,49.5 Z"/></g>
<g><path style="opacity:0.981" fill="#003951" d="M 547.5,49.5 C 559.91,47.2204 570.41,50.5538 579,59.5C 580.608,62.3821 581.941,65.3821 583,68.5C 583.5,84.1631 583.667,99.8298 583.5,115.5C 577.5,115.5 571.5,115.5 565.5,115.5C 565.66,113.801 565.494,112.134 565,110.5C 554.22,119.159 543.053,119.659 531.5,112C 523.043,101.431 523.71,91.4314 533.5,82C 536.674,80.2752 540.007,78.9419 543.5,78C 550.833,76.6667 558.167,75.3333 565.5,74C 561.796,66.2249 555.796,63.8916 547.5,67C 544.438,68.0608 541.938,69.8941 540,72.5C 536.5,69 533,65.5 529.5,62C 534.021,55.6366 540.021,51.47 547.5,49.5 Z M 561.5,86.5 C 562.833,86.5 564.167,86.5 565.5,86.5C 564.194,100.56 557.36,104.56 545,98.5C 543.877,95.0437 544.71,92.2103 547.5,90C 552.317,88.9293 556.984,87.7627 561.5,86.5 Z"/></g>
<g><path style="opacity:0.973" fill="#003a51" d="M 614.5,143.5 C 610.5,143.5 606.5,143.5 602.5,143.5C 601.122,142.766 599.622,142.099 598,141.5C 597.501,136.177 597.334,130.844 597.5,125.5C 607.331,128.084 613.998,124.584 617.5,115C 608.74,93.65 600.407,72.15 592.5,50.5C 599.09,50.189 605.59,50.5223 612,51.5C 616.667,64.8333 621.333,78.1667 626,91.5C 631.524,78.096 636.357,64.4294 640.5,50.5C 647.2,50.17 653.866,50.5033 660.5,51.5C 651.389,74.7233 642.556,98.0566 634,121.5C 630.746,131.909 624.246,139.243 614.5,143.5 Z"/></g>
</svg>
