<?xml version="1.0" encoding="utf-8"?>
<!-- Generator: Adobe Illustrator 26.3.1, SVG Export Plug-In . SVG Version: 6.00 Build 0)  -->
<svg version="1.1" id="Ebene_1" xmlns="http://www.w3.org/2000/svg" xmlns:xlink="http://www.w3.org/1999/xlink" x="0px" y="0px"
	 viewBox="0 0 746.1 286.2" style="enable-background:new 0 0 746.1 286.2;" xml:space="preserve">
<style type="text/css">
	.st0{fill-rule:evenodd;clip-rule:evenodd;fill:#2E3235;}
	.st1{fill-rule:evenodd;clip-rule:evenodd;fill:#E5E5E0;}
</style>
<path class="st0" d="M693.2,279.2H7.1L52.8,7.1H739L693.2,279.2z"/>
<path class="st1" d="M225.9,165.6c-11.7,0-19.9-7.6-19.9-19.5c0-13.2,10.2-25.5,24.9-25.5c11.7,0,19.9,8,19.9,19.9
	C250.9,153.6,240.6,165.6,225.9,165.6z M232.8,97.8c-30.8,0-54.1,22.5-54.1,49.4c0,24.4,19.2,41.2,45.4,41.2
	c30.8,0,54.1-23.2,54.1-50.1C278.1,114,259,97.8,232.8,97.8z"/>
<path class="st1" d="M411.5,165.6c-11.7,0-19.9-7.6-19.9-19.5c0-13.2,10.2-25.5,24.9-25.5c11.7,0,19.9,8,19.9,19.9
	C436.4,153.6,426.2,165.6,411.5,165.6z M418.3,97.8c-30.8,0-54.1,22.5-54.1,49.4c0,24.4,19.2,41.2,45.4,41.2
	c30.8,0,54.1-23.2,54.1-50.1C463.7,114,444.5,97.8,418.3,97.8z"/>
<path class="st1" d="M510.5,140.7h-4l3-18.2h3.6c8.5,0,13.1,2.6,13.1,8.1C526.2,137.4,519.7,140.7,510.5,140.7z M554.3,126.4
	c0-16.3-12.8-26.8-35.9-26.8h-32.7l-14.3,87h27.5l4.5-27.4h1.3l14.6,27.4h31.5l-20.2-30.4C545.4,151.1,554.3,140,554.3,126.4z"/>
<path class="st1" d="M147.2,134.3c-10.4-5.2-12.8-6.6-12.8-9.4c0-3.5,4.1-5.2,9.9-5.2c6.6,0,16.7,0.7,26.5,10
	c2.4-7.5,6.4-14.2,11.6-20.1c-13.9-7.8-26.7-11.8-38.5-11.8c-23.5,0-36.9,12.5-36.9,27.5c0,12.9,9.8,19.7,21.5,25.6
	c10.4,5.4,13.1,7,13.1,10.3c0,3.5-4.4,5.5-10.2,5.5c-10.1,0-21.7-6.3-28.6-12.7l-4,24.2c7.2,5.1,17.5,10.4,33,10.4
	c24.2,0,37.3-12.1,37.3-27.7C168.9,148.1,160.5,141.1,147.2,134.3z"/>
<path class="st1" d="M350.5,137.8h-32.2l2.5-15.2h34.5c4.5-9.2,11.4-17,20-22.9h-56.5c-12.5,0-23.2,8.5-25.1,20l-11,67h27.5
	l4.5-27.4h32.7l2.4-14.9C349.9,142.2,350.1,140,350.5,137.8z"/>
<path class="st1" d="M554.9,99.6c7.3,5.6,11.9,13.4,12.8,22.9h23l-10.6,64h27.5l10.6-64h25.5l3.8-22.9H554.9z"/>
</svg>
